<?xml version="1.0" encoding="utf-8"?>
<!-- Generator: Adobe Illustrator 16.0.0, SVG Export Plug-In . SVG Version: 6.00 Build 0)  -->
<!DOCTYPE svg PUBLIC "-//W3C//DTD SVG 1.1//EN" "http://www.w3.org/Graphics/SVG/1.1/DTD/svg11.dtd">
<svg version="1.1" id="Layer_1" xmlns="http://www.w3.org/2000/svg" xmlns:xlink="http://www.w3.org/1999/xlink" x="0px" y="0px"
	 width="500px" height="500px" viewBox="0 0 500 500" enable-background="new 0 0 500 500" xml:space="preserve">
<g>
	<g>
		<polygon opacity="0.5" fill="#173D7A" enable-background="new    " points="132.464,153.946 56.214,108.689 69.194,99.342 
			145.444,142.889 		"/>
		<polygon fill="#173D7A" points="148.864,132.926 135.884,143.983 135.884,101.353 148.864,93.718 		"/>
		<polygon fill="#D4ECFF" points="135.884,101.353 59.637,56.098 74.324,50.171 148.864,93.718 		"/>
		<polygon fill="#5793CE" points="135.884,143.983 59.637,98.726 59.637,56.098 135.884,101.353 		"/>
	</g>
	<g>
		<g>
			<g>
				<polygon fill="#FFFFFF" points="92.683,103.191 92.683,105.419 93.943,106.061 93.947,103.835 				"/>
				<path fill="#FFFFFF" d="M91.81,102.747l-3.88-1.976c-0.263-0.135-0.438-0.432-0.479-0.722L85.1,84.823
					c-0.073-0.494-0.259-0.961-0.582-1.378c-0.312-0.418-0.694-0.742-1.128-0.964c-0.367-0.186-0.705-0.253-0.999-0.205
					c-0.298,0.039-0.491,0.217-0.586,0.524l-3.832,11.178l-0.044-0.022l-3.835-14.993c-0.093-0.436-0.293-0.843-0.593-1.206
					c-0.294-0.359-0.648-0.646-1.04-0.844c-0.403-0.206-0.765-0.251-1.082-0.14c-0.316,0.109-0.576,0.87-0.576,0.87l-2.426,12.689
					c-0.044,0.252-0.31,0.308-0.586,0.169l-2.397-1.223l-0.007,2.232l3.769,1.919c0.306,0.154,0.631,0.265,0.863,0.185
					c0.225-0.07,0.355-0.383,0.373-0.51l2.115-13.365l4.337,16.737c0.073,0.298,0.219,0.587,0.434,0.86
					c0.214,0.26,0.45,0.465,0.692,0.59c0.572,0.289,0.938,0.189,1.083-0.324l4.382-12.294l2.063,15.486
					c0.046,0.321,0.181,0.633,0.391,0.914c0.208,0.27,0.46,0.489,0.738,0.631l5.177,2.637v-2.23H91.81z"/>
				<polygon fill="#FFFFFF" points="91.81,102.742 86.598,100.087 86.598,102.308 91.81,104.962 				"/>
				<path fill="#FFFFFF" d="M65.422,90.404v1.115c-0.613-0.314-1.113-1.069-1.113-1.683c0-0.613,0.5-0.86,1.113-0.546V90.404
					L65.422,90.404z"/>
				<path fill="#FFFFFF" d="M97.502,103.835l-3.439-1.75c-0.495-0.254-0.848-0.543-1.062-0.875
					c-0.212-0.329-0.318-0.741-0.318-1.225v-8.457c0-0.495,0.107-0.797,0.325-0.903c0.216-0.105,0.57-0.037,1.056,0.211l3.646,1.858
					c0.535,0.273,0.999,0.545,1.395,0.812c0.392,0.264,0.747,0.574,1.058,0.921c0.268,0.295,0.498,0.615,0.706,0.964
					c0.205,0.346,0.359,0.694,0.466,1.043c0.107,0.35,0.162,0.687,0.162,1.013c0,1.127-0.562,1.666-1.689,1.613
					c1.482,1.222,2.221,2.516,2.221,3.878c0,0.627-0.163,1.11-0.486,1.449c-0.322,0.34-0.758,0.491-1.306,0.455
					c-0.342-0.034-0.735-0.131-1.18-0.302C98.612,104.373,98.093,104.138,97.502,103.835L97.502,103.835z M97.332,98.754
					l-2.372-1.208v3.286l2.447,1.245c1.54,0.786,2.311,0.622,2.311-0.487c0-0.57-0.198-1.082-0.597-1.541
					C98.721,99.59,98.125,99.158,97.332,98.754L97.332,98.754z M94.96,93.002v2.91l2.088,1.063c0.566,0.287,1.006,0.458,1.315,0.506
					c0.308,0.051,0.546-0.032,0.709-0.251c0.129-0.15,0.192-0.359,0.192-0.625c0-0.569-0.204-1.049-0.606-1.439
					c-0.404-0.39-1.023-0.8-1.85-1.222L94.96,93.002L94.96,93.002z M109.293,108.854v-0.27c-0.252,0.189-0.515,0.322-0.792,0.396
					c-0.275,0.075-0.578,0.081-0.903,0.02c-0.329-0.063-0.704-0.203-1.122-0.415c-0.507-0.257-0.958-0.593-1.363-1.006
					c-0.399-0.415-0.711-0.862-0.933-1.343c-0.259-0.578-0.39-1.284-0.39-2.116v-4.15c0-0.421,0.093-0.685,0.282-0.797
					c0.19-0.109,0.44-0.087,0.756,0.074c0.317,0.161,0.569,0.395,0.767,0.704c0.193,0.308,0.29,0.669,0.29,1.086v3.353
					c0,0.485,0.042,0.916,0.123,1.286c0.082,0.372,0.228,0.706,0.44,1c0.213,0.294,0.499,0.533,0.864,0.721
					c0.351,0.178,0.683,0.245,0.998,0.193c0.311-0.051,0.537-0.211,0.683-0.476c0.119-0.236,0.177-0.855,0.177-1.858v-2.546
					c0-0.417,0.094-0.679,0.288-0.791c0.199-0.108,0.45-0.086,0.76,0.073c0.314,0.158,0.562,0.391,0.754,0.696
					c0.189,0.303,0.284,0.665,0.284,1.085v6.07c0,0.397-0.093,0.648-0.274,0.758c-0.18,0.107-0.417,0.086-0.702-0.06
					c-0.288-0.147-0.524-0.373-0.711-0.672C109.386,109.566,109.293,109.227,109.293,108.854L109.293,108.854z M120.088,112.797
					c0,0.579-0.14,1.001-0.421,1.27c-0.282,0.268-0.696,0.369-1.247,0.299c-0.55-0.067-1.221-0.302-2.006-0.701
					c-0.75-0.383-1.4-0.828-1.936-1.333c-0.536-0.502-0.933-0.993-1.189-1.47c-0.253-0.47-0.382-0.886-0.382-1.234
					c0-0.228,0.082-0.386,0.246-0.464c0.161-0.083,0.369-0.058,0.621,0.071c0.221,0.11,0.388,0.25,0.504,0.417
					c0.119,0.169,0.232,0.376,0.34,0.624c0.213,0.484,0.47,0.89,0.768,1.229c0.301,0.336,0.71,0.637,1.225,0.898
					c0.42,0.215,0.765,0.297,1.033,0.247c0.271-0.048,0.404-0.195,0.404-0.433c0-0.369-0.139-0.708-0.421-1.021
					c-0.277-0.308-0.738-0.706-1.379-1.187c-0.718-0.544-1.307-1.033-1.758-1.458c-0.454-0.428-0.815-0.871-1.086-1.332
					c-0.271-0.46-0.407-0.926-0.407-1.396c0-0.419,0.126-0.752,0.377-0.996c0.25-0.249,0.618-0.358,1.109-0.331
					c0.485,0.025,1.077,0.215,1.765,0.567c0.545,0.275,1.03,0.58,1.461,0.913c0.433,0.333,0.795,0.669,1.082,1.005
					c0.291,0.337,0.511,0.661,0.66,0.967c0.152,0.307,0.229,0.572,0.229,0.793c0,0.237-0.083,0.396-0.242,0.466
					c-0.163,0.071-0.391,0.031-0.691-0.121c-0.213-0.109-0.395-0.262-0.546-0.46c-0.152-0.202-0.326-0.474-0.519-0.818
					c-0.158-0.283-0.347-0.546-0.561-0.776c-0.216-0.234-0.507-0.442-0.877-0.629c-0.375-0.19-0.692-0.271-0.941-0.241
					c-0.25,0.033-0.376,0.17-0.376,0.411c0,0.22,0.091,0.447,0.276,0.684c0.183,0.233,0.432,0.477,0.744,0.728
					c0.311,0.25,0.741,0.583,1.288,0.993c0.649,0.49,1.181,0.949,1.592,1.379c0.41,0.428,0.721,0.848,0.935,1.252
					C119.982,112.016,120.088,112.412,120.088,112.797L120.088,112.797z"/>
				<path fill="#FFFFFF" d="M90.222,95.304l-2.155-1.099c-0.327-0.165-0.578-0.37-0.747-0.608c-0.17-0.24-0.255-0.478-0.255-0.721
					c0-0.245,0.083-0.4,0.248-0.47c0.166-0.065,0.417-0.016,0.753,0.156l2.155,1.098c0.337,0.173,0.59,0.378,0.756,0.613
					c0.166,0.236,0.248,0.479,0.248,0.722c0,0.244-0.082,0.396-0.243,0.467C90.816,95.53,90.563,95.479,90.222,95.304L90.222,95.304
					z"/>
			</g>
			<g>
				<g id="text24" transform="scale(1.235112,0.80964317)">
					<path id="path3360" fill="#FFFFFF" d="M75.271,132.409l0.459,1.932l0.418-1.14c0.045-0.118,0.078-0.197,0.099-0.236
						c0.022-0.039,0.063-0.062,0.122-0.065c0.059-0.005,0.142,0.033,0.245,0.114c0.106,0.083,0.188,0.171,0.245,0.267
						c0.06,0.1,0.103,0.186,0.128,0.267c0.023,0.077,0.057,0.204,0.1,0.385l0.418,1.791l0.465-1.213
						c0.031-0.091,0.055-0.153,0.075-0.187c0.019-0.039,0.05-0.058,0.095-0.06c0.044-0.006,0.11,0.025,0.194,0.09
						c0.085,0.066,0.159,0.153,0.221,0.26c0.061,0.107,0.092,0.2,0.092,0.28c0,0.072-0.026,0.16-0.079,0.265l-0.576,1.242
						c-0.05,0.105-0.089,0.178-0.116,0.22c-0.028,0.04-0.072,0.065-0.132,0.069c-0.059,0.003-0.138-0.036-0.242-0.115
						c-0.106-0.084-0.191-0.177-0.254-0.279c-0.06-0.1-0.104-0.199-0.134-0.3c-0.03-0.1-0.061-0.226-0.096-0.375l-0.403-1.688
						l-0.391,1.07c-0.051,0.154-0.107,0.256-0.167,0.304c-0.06,0.051-0.166,0.017-0.317-0.102c-0.077-0.06-0.144-0.127-0.198-0.199
						c-0.055-0.072-0.099-0.15-0.136-0.232c-0.036-0.086-0.069-0.178-0.095-0.273c-0.028-0.1-0.05-0.178-0.064-0.235l-0.571-2.131
						c-0.058-0.204-0.087-0.335-0.087-0.394c0-0.076,0.031-0.121,0.09-0.136c0.06-0.011,0.135,0.015,0.221,0.085
						c0.119,0.091,0.198,0.186,0.238,0.285C75.179,132.062,75.224,132.211,75.271,132.409z"/>
					<path id="path3362" fill="#FFFFFF" d="M79.836,135.917v2.04c0,0.144-0.034,0.221-0.101,0.241
						c-0.068,0.019-0.152-0.009-0.256-0.091c-0.104-0.079-0.188-0.183-0.253-0.306c-0.064-0.124-0.096-0.256-0.096-0.393v-2.019
						c0-0.138,0.032-0.218,0.096-0.239c0.065-0.019,0.149,0.01,0.253,0.092c0.104,0.08,0.187,0.18,0.256,0.304
						C79.802,135.668,79.836,135.792,79.836,135.917z M79.487,134.92c-0.098-0.078-0.183-0.174-0.251-0.29
						c-0.07-0.113-0.106-0.226-0.106-0.337c0-0.099,0.036-0.154,0.107-0.163c0.072-0.009,0.155,0.023,0.25,0.097
						c0.092,0.071,0.172,0.166,0.242,0.277c0.071,0.115,0.107,0.227,0.107,0.34c0,0.109-0.035,0.166-0.104,0.175
						C79.663,135.024,79.581,134.991,79.487,134.92z"/>
					<path id="path3364" fill="#FFFFFF" d="M81.268,138.483v0.586c0,0.145-0.034,0.224-0.101,0.245
						c-0.068,0.021-0.153-0.011-0.255-0.092c-0.103-0.077-0.186-0.18-0.251-0.304c-0.064-0.122-0.098-0.255-0.098-0.397v-1.963
						c0-0.317,0.114-0.387,0.342-0.206c0.116,0.089,0.202,0.193,0.254,0.308c0.053,0.114,0.081,0.245,0.086,0.395
						c0.085-0.08,0.17-0.122,0.257-0.131c0.089-0.003,0.209,0.051,0.357,0.169c0.147,0.115,0.291,0.262,0.431,0.444
						c0.14,0.184,0.209,0.333,0.209,0.458c0,0.086-0.029,0.134-0.089,0.144c-0.059,0.009-0.122-0.011-0.192-0.067
						c-0.024-0.018-0.087-0.083-0.189-0.192c-0.096-0.107-0.185-0.191-0.26-0.251c-0.103-0.081-0.187-0.118-0.253-0.115
						c-0.066,0.002-0.116,0.041-0.153,0.123c-0.036,0.08-0.061,0.187-0.077,0.323C81.274,138.095,81.268,138.269,81.268,138.483z"/>
					<path id="path3366" fill="#FFFFFF" d="M84.722,140.922l-1.38-1.072c0,0.16,0.034,0.327,0.095,0.498
						c0.064,0.171,0.147,0.329,0.249,0.472c0.107,0.145,0.222,0.265,0.347,0.362c0.083,0.065,0.16,0.116,0.231,0.151
						c0.072,0.034,0.139,0.055,0.203,0.065c0.065,0.008,0.125,0.008,0.182,0.006c0.056-0.006,0.127-0.017,0.215-0.031
						c0.036-0.004,0.089,0.021,0.156,0.071c0.072,0.059,0.13,0.124,0.174,0.197c0.044,0.075,0.07,0.149,0.07,0.222
						c0,0.063-0.027,0.117-0.077,0.166c-0.05,0.045-0.124,0.069-0.228,0.069c-0.1,0-0.227-0.036-0.38-0.101
						c-0.152-0.066-0.325-0.176-0.525-0.331c-0.453-0.352-0.804-0.756-1.057-1.208c-0.251-0.454-0.377-0.903-0.377-1.347
						c0-0.207,0.032-0.376,0.094-0.505c0.061-0.13,0.152-0.212,0.272-0.248c0.118-0.035,0.265-0.018,0.438,0.049
						c0.175,0.068,0.366,0.182,0.58,0.347c0.275,0.212,0.511,0.457,0.706,0.725c0.198,0.272,0.347,0.536,0.444,0.796
						c0.098,0.259,0.147,0.486,0.147,0.68c0,0.177-0.049,0.252-0.151,0.228C85.05,141.15,84.907,141.066,84.722,140.922z
						 M83.343,139.449l1.28,0.993c-0.017-0.254-0.083-0.484-0.196-0.692c-0.111-0.207-0.26-0.382-0.443-0.527
						c-0.177-0.135-0.321-0.186-0.435-0.153C83.435,139.104,83.366,139.23,83.343,139.449z"/>
					<path id="path3368" fill="#FFFFFF" d="M85.901,142.669v-3.058c0-0.141,0.03-0.224,0.092-0.247
						c0.065-0.024,0.149,0.007,0.255,0.089c0.108,0.084,0.194,0.186,0.26,0.31c0.065,0.121,0.097,0.252,0.097,0.397v3.059
						c0,0.141-0.033,0.223-0.1,0.244c-0.066,0.019-0.151-0.012-0.256-0.093c-0.104-0.08-0.188-0.183-0.253-0.306
						C85.933,142.94,85.901,142.807,85.901,142.669z"/>
					<path id="path3370" fill="#FFFFFF" d="M89.306,144.485l-1.379-1.073c0.004,0.163,0.033,0.329,0.096,0.499
						c0.064,0.171,0.147,0.328,0.251,0.471c0.105,0.144,0.222,0.265,0.346,0.364c0.083,0.065,0.161,0.115,0.231,0.151
						c0.068,0.033,0.138,0.055,0.204,0.064c0.066,0.008,0.124,0.008,0.18,0.007c0.055-0.007,0.126-0.016,0.213-0.031
						c0.036-0.003,0.087,0.02,0.155,0.074c0.072,0.055,0.13,0.122,0.175,0.197c0.044,0.073,0.066,0.147,0.066,0.22
						c0,0.062-0.024,0.121-0.074,0.165c-0.05,0.046-0.126,0.069-0.227,0.069c-0.1,0-0.227-0.031-0.381-0.102
						c-0.152-0.066-0.327-0.174-0.525-0.329c-0.451-0.352-0.804-0.754-1.056-1.208c-0.253-0.452-0.378-0.902-0.378-1.347
						c0-0.209,0.031-0.377,0.092-0.505c0.064-0.131,0.153-0.215,0.272-0.248c0.119-0.035,0.266-0.017,0.44,0.049
						c0.173,0.066,0.367,0.183,0.579,0.346c0.275,0.215,0.513,0.458,0.708,0.727c0.2,0.271,0.346,0.536,0.444,0.795
						c0.098,0.26,0.149,0.487,0.149,0.679c0,0.178-0.051,0.253-0.153,0.229C89.633,144.712,89.492,144.629,89.306,144.485z
						 M87.926,143.012l1.28,0.995c-0.016-0.256-0.083-0.486-0.198-0.695c-0.112-0.208-0.261-0.382-0.444-0.526
						c-0.174-0.135-0.319-0.186-0.434-0.153C88.019,142.669,87.951,142.792,87.926,143.012z"/>
					<path id="path3372" fill="#FFFFFF" d="M92.75,147.502c0,0.195-0.047,0.324-0.143,0.391c-0.094,0.065-0.234,0.06-0.422-0.011
						c-0.183-0.072-0.408-0.213-0.674-0.418c-0.255-0.197-0.471-0.405-0.651-0.624c-0.182-0.218-0.315-0.418-0.403-0.601
						c-0.087-0.184-0.129-0.335-0.129-0.453c0-0.078,0.028-0.123,0.084-0.135c0.055-0.013,0.124,0.014,0.21,0.081
						c0.074,0.057,0.13,0.12,0.169,0.186c0.039,0.066,0.077,0.149,0.114,0.241c0.072,0.182,0.158,0.343,0.258,0.486
						c0.102,0.138,0.238,0.276,0.413,0.412c0.142,0.11,0.258,0.169,0.346,0.178c0.092,0.005,0.137-0.031,0.137-0.111
						c0-0.124-0.047-0.253-0.143-0.383c-0.092-0.13-0.248-0.303-0.462-0.52c-0.242-0.249-0.441-0.466-0.594-0.651
						c-0.152-0.184-0.274-0.367-0.364-0.548c-0.091-0.179-0.137-0.346-0.137-0.506c0-0.141,0.043-0.242,0.126-0.302
						c0.085-0.06,0.209-0.062,0.372-0.011c0.164,0.053,0.364,0.17,0.597,0.352c0.183,0.141,0.347,0.286,0.491,0.436
						c0.147,0.153,0.267,0.298,0.365,0.436c0.098,0.141,0.171,0.268,0.221,0.384c0.053,0.118,0.077,0.214,0.077,0.288
						c0,0.079-0.028,0.125-0.082,0.134c-0.052,0.01-0.13-0.024-0.23-0.101c-0.072-0.055-0.136-0.125-0.186-0.207
						c-0.05-0.081-0.107-0.188-0.172-0.323c-0.052-0.109-0.116-0.212-0.189-0.311c-0.072-0.096-0.168-0.194-0.294-0.29
						c-0.127-0.099-0.233-0.156-0.318-0.164c-0.085-0.012-0.128,0.023-0.128,0.103c0,0.073,0.03,0.16,0.092,0.256
						c0.062,0.095,0.145,0.198,0.252,0.31c0.106,0.113,0.249,0.263,0.434,0.452c0.218,0.224,0.395,0.425,0.534,0.606
						c0.139,0.183,0.244,0.35,0.315,0.508C92.714,147.229,92.75,147.373,92.75,147.502z"/>
					<path id="path3374" fill="#FFFFFF" d="M95.624,149.734c0,0.195-0.046,0.325-0.141,0.391c-0.094,0.066-0.237,0.06-0.424-0.012
						c-0.184-0.071-0.407-0.212-0.674-0.419c-0.253-0.194-0.47-0.401-0.652-0.621c-0.181-0.218-0.314-0.419-0.4-0.601
						c-0.087-0.183-0.13-0.335-0.13-0.452c0-0.08,0.028-0.121,0.083-0.132c0.057-0.011,0.125,0.013,0.21,0.077
						c0.075,0.059,0.131,0.121,0.17,0.187c0.04,0.068,0.078,0.148,0.115,0.242c0.072,0.183,0.158,0.343,0.257,0.484
						c0.104,0.138,0.239,0.276,0.414,0.413c0.14,0.11,0.257,0.167,0.346,0.176c0.092,0.006,0.138-0.028,0.138-0.11
						c0-0.124-0.046-0.25-0.144-0.384c-0.092-0.13-0.246-0.303-0.461-0.522c-0.244-0.249-0.441-0.467-0.595-0.651
						c-0.152-0.185-0.273-0.367-0.364-0.546c-0.091-0.181-0.139-0.35-0.139-0.509c0-0.141,0.045-0.241,0.128-0.3
						c0.083-0.061,0.21-0.065,0.371-0.011c0.166,0.053,0.365,0.17,0.599,0.351c0.182,0.141,0.347,0.288,0.491,0.437
						c0.146,0.153,0.268,0.299,0.366,0.437c0.097,0.14,0.173,0.271,0.221,0.384c0.053,0.118,0.078,0.214,0.078,0.289
						c0,0.08-0.028,0.125-0.083,0.135c-0.053,0.008-0.131-0.025-0.231-0.103c-0.072-0.057-0.134-0.124-0.184-0.205
						c-0.05-0.08-0.108-0.188-0.172-0.321c-0.055-0.111-0.116-0.216-0.191-0.312c-0.072-0.099-0.169-0.195-0.292-0.293
						c-0.128-0.099-0.234-0.152-0.319-0.161c-0.084-0.012-0.127,0.021-0.127,0.101c0,0.071,0.031,0.16,0.093,0.254
						c0.061,0.095,0.145,0.2,0.249,0.31c0.106,0.115,0.25,0.266,0.436,0.452c0.218,0.226,0.397,0.427,0.534,0.608
						c0.138,0.183,0.244,0.352,0.315,0.508C95.589,149.463,95.624,149.606,95.624,149.734z"/>
				</g>
			</g>
		</g>
		<g>
			<path fill="#FFFFFF" d="M123.722,115.166c0-0.12,0.036-0.222,0.118-0.28c0.188-0.147,0.538-0.011,0.778,0.302
				c0.154,0.195,0.709,1.007,1.259,2.128c0.711,1.447,1.128,2.844,1.207,4.038c0.135,2.052-0.676,3.546-2.41,4.446
				c-0.214,0.109-0.564-0.063-0.786-0.39c-0.217-0.327-0.223-0.678-0.01-0.79c1.495-0.772,2.2-2.023,2.102-3.715
				c-0.075-1.261-0.59-2.553-1.012-3.415c-0.467-0.958-0.941-1.659-1.036-1.781C123.794,115.532,123.722,115.33,123.722,115.166z
				 M121.998,115.991c0.148,0.202,1.432,2.021,1.508,3.737c0.053,1.169-0.466,2.055-1.544,2.636
				c-0.213,0.115-0.206,0.471,0.019,0.794c0.222,0.326,0.573,0.496,0.784,0.383c1.295-0.698,1.918-1.807,1.851-3.298
				c-0.096-2.14-1.589-4.305-1.889-4.715c-0.23-0.321-0.58-0.475-0.782-0.347c-0.092,0.061-0.138,0.166-0.138,0.295
				C121.808,115.629,121.872,115.816,121.998,115.991z M120.233,116.411c0.179,0.196,0.839,1.183,0.934,2.093
				c0.078,0.771-0.27,1.328-1.03,1.651c-0.223,0.094-0.234,0.438-0.025,0.769c0.209,0.333,0.56,0.521,0.782,0.427
				c1.283-0.546,1.457-1.607,1.376-2.402c-0.137-1.342-1.048-2.735-1.468-3.202c-0.264-0.292-0.604-0.38-0.763-0.197
				c-0.053,0.063-0.077,0.148-0.077,0.246C119.962,115.984,120.06,116.216,120.233,116.411z M119.3,117.808
				c0-0.588-0.475-1.308-1.064-1.606c-0.589-0.299-1.067-0.066-1.067,0.521c0,0.588,0.478,1.307,1.067,1.607
				S119.3,118.397,119.3,117.808z"/>
		</g>
		<polygon fill="#FFFFFF" points="95.331,106.739 92.538,105.316 92.538,103.105 95.331,104.528 		"/>
		<polygon fill="#FFFFFF" points="98.884,108.57 96.09,107.147 96.09,104.936 98.884,106.36 		"/>
		<polygon fill="#FFFFFF" points="102.314,110.386 99.521,108.961 99.521,106.751 102.314,108.174 		"/>
		<polygon fill="#FFFFFF" points="105.745,112.088 102.951,110.667 102.951,108.454 105.745,109.878 		"/>
		<polygon fill="#FFFFFF" points="109.124,113.833 106.33,112.408 106.33,110.197 109.124,111.621 		"/>
		<polygon fill="#FFFFFF" points="112.555,115.645 109.76,114.222 109.76,112.012 112.555,113.436 		"/>
		<polygon fill="#FFFFFF" points="116.042,117.423 113.248,116 113.248,113.79 116.042,115.212 		"/>
	</g>
</g>
<g id="XMLID_1_">
	<path opacity="0.5" fill="#173D7A" enable-background="new    " d="M109.594,420.675l14.907,10.336l12.031-7.332l-7.315-5.299
		l40.136-25.584c0,0,73.853,29.547,135.342,5.464c52.831-20.691,57.002-43.258,60.419-51.426
		c7.243-17.314,0.648-63.303,0.648-63.303l45.196-32.367l7.97,6.541l13.018-9.82l-23.096-18.642l-23.03,13.618L170.586,360.07
		l-41.438,32.479l-12.089,1.878l-30.966,8.663L109.594,420.675z"/>
	<g id="XMLID_6_">
		<g id="XMLID_90_">
			<g id="XMLID_92_">
				<path id="XMLID_94_" fill="#FECB87" d="M434.996,210.022c0-16.031-11.322-35.561-25.291-43.626
					c-7.002-4.042-13.336-4.436-17.917-1.806l0,0l-18.247,11.002l37.754,60.364l16.046-9.563
					C432.061,223.847,434.996,218.179,434.996,210.022z"/>
				<path id="XMLID_93_" fill="#A36841" d="M417.081,220.822c0,16.028-11.322,22.485-25.293,14.422
					c-13.965-8.064-25.291-27.598-25.291-43.625c0-16.028,11.326-22.486,25.291-14.422
					C405.759,185.263,417.081,204.794,417.081,220.822z"/>
			</g>
			<path id="XMLID_91_" fill="#063154" d="M411.66,220.383c0-13.755-9.717-30.515-21.704-37.437
				c-6.006-3.466-11.442-3.804-15.371-1.548l0,0l-70.05,40.563l31.292,52.396l69.264-39.924
				C409.143,232.248,411.66,227.382,411.66,220.383z"/>
		</g>
		<g id="XMLID_86_">
			<path id="XMLID_89_" fill="#173D7A" d="M164.906,368.008c45.601,26.381,119.807,26.316,165.743-0.148
				c23.021-13.262,34.564-30.639,34.626-47.993v-81.332l-0.641-21.485l-233.876,8.041l0.167,94.188
				C130.403,336.898,141.704,354.583,164.906,368.008z"/>
			
				<linearGradient id="XMLID_20_" gradientUnits="userSpaceOnUse" x1="188.9766" y1="82.9619" x2="411.0782" y2="82.9619" gradientTransform="matrix(1 0 0 -1 -56 355)">
				<stop  offset="0" style="stop-color:#757575"/>
				<stop  offset="0.1531" style="stop-color:#7A7A7A"/>
				<stop  offset="0.2566" style="stop-color:#818181"/>
				<stop  offset="0.2591" style="stop-color:#979797"/>
				<stop  offset="0.2597" style="stop-color:#9E9E9E"/>
				<stop  offset="0.6218" style="stop-color:#A5A5A5"/>
				<stop  offset="0.6291" style="stop-color:#B8B8B8"/>
				<stop  offset="0.8286" style="stop-color:#C8C8C8"/>
				<stop  offset="0.9844" style="stop-color:#CECECE"/>
				<stop  offset="0.9845" style="stop-color:#BABABA"/>
				<stop  offset="0.9845" style="stop-color:#BABABA"/>
			</linearGradient>
			<path id="XMLID_88_" fill="url(#XMLID_20_)" d="M130.878,225.082l0.049,33.471c-0.523,17.622,10.777,35.307,33.979,48.731
				c45.601,26.382,119.807,26.315,165.743-0.148c23.021-13.265,34.564-30.639,34.626-47.993v-20.608l-0.641-21.485L130.878,225.082z
				"/>
			<path id="XMLID_87_" fill="#F9E9DE" d="M164.292,286.305c-45.601-26.385-45.329-69.227,0.605-95.691
				c45.937-26.465,120.142-26.531,165.741-0.148c45.602,26.387,45.33,69.229-0.606,95.688
				C284.098,312.621,209.892,312.688,164.292,286.305z"/>
		</g>
		<g id="XMLID_83_">
			
				<linearGradient id="XMLID_21_" gradientUnits="userSpaceOnUse" x1="575.2656" y1="345.4707" x2="690.4876" y2="145.9003" gradientTransform="matrix(-0.5008 0.8656 0.8656 0.5008 347.9124 -400.6496)">
				<stop  offset="0.0092" style="stop-color:#656565"/>
				<stop  offset="0.0113" style="stop-color:#686868"/>
				<stop  offset="0.0264" style="stop-color:#7C7C7C"/>
				<stop  offset="0.0281" style="stop-color:#7C7C7C"/>
				<stop  offset="0.1569" style="stop-color:#7E7E7E"/>
				<stop  offset="0.2393" style="stop-color:#787878"/>
				<stop  offset="0.3489" style="stop-color:#676767"/>
				<stop  offset="0.3709" style="stop-color:#636363"/>
				<stop  offset="0.3782" style="stop-color:#4D4D4D"/>
				<stop  offset="0.7834" style="stop-color:#464646"/>
				<stop  offset="0.784" style="stop-color:#3E3E3E"/>
				<stop  offset="0.7861" style="stop-color:#282828"/>
				<stop  offset="0.8723" style="stop-color:#212121"/>
				<stop  offset="1" style="stop-color:#1C1C1C"/>
			</linearGradient>
			<path id="XMLID_85_" fill="url(#XMLID_21_)" d="M161.738,295.783c47.346,27.392,124.386,27.322,172.078-0.153
				c23.9-13.771,35.892-31.812,35.947-49.829v0.753l-0.663-22.305l-242.815,8.347l0.177,12.596
				C125.918,263.484,137.649,281.848,161.738,295.783z"/>
			<path id="XMLID_84_" fill="#777777" d="M161.099,275.549c-47.342-27.39-47.062-71.868,0.631-99.347
				c47.691-27.478,124.731-27.546,172.077-0.152c47.344,27.391,47.063,71.872-0.631,99.349
				C285.484,302.874,208.444,302.941,161.099,275.549z"/>
		</g>
		<g id="XMLID_76_">
			<path id="XMLID_82_" fill="#063154" d="M182.008,352.945c0,7.008-2.533,11.878-6.571,14.057l-10.768,6.214l-58.508,33.689
				l-31.273-52.374l27.67-16.033l42.359-24.544c3.918-2.257,9.38-1.899,15.396,1.544
				C172.271,322.427,182.008,339.171,182.008,352.945z"/>
			<path id="XMLID_81_" fill="#C0B000" d="M111.133,393.93c0,13.755-9.717,19.296-21.702,12.372
				c-11.988-6.918-21.706-23.678-21.706-37.433s9.718-19.294,21.706-12.372C101.416,363.415,111.133,380.175,111.133,393.93z"/>
			<path id="XMLID_80_" fill="#FECB87" d="M130.021,386.822c0-16.031-11.322-35.562-25.291-43.629
				c-7.002-4.039-13.336-4.434-17.917-1.803l0,0l-18.247,11l37.754,60.365l16.046-9.563
				C127.086,400.646,130.021,394.979,130.021,386.822z"/>
			<path id="XMLID_79_" fill="#A36841" d="M112.106,397.622c0,16.027-11.322,22.485-25.293,14.421
				c-13.965-8.063-25.291-27.598-25.291-43.625s11.326-22.484,25.291-14.421C100.784,362.061,112.106,381.594,112.106,397.622z"/>
			<path id="XMLID_78_" fill="#FECB87" d="M95.97,404.552c-1.997,0-4.352-0.749-6.819-2.172
				c-9.789-5.654-18.059-19.912-18.059-31.135c0-2.937,0.64-9.757,6.567-9.757c1.996,0,4.355,0.75,6.82,2.173
				c9.787,5.653,18.06,19.912,18.06,31.134C102.539,397.73,101.9,404.552,95.97,404.552z"/>
			<path id="XMLID_77_" fill="#B59E97" d="M102.539,394.795c0-11.222-8.272-25.479-18.06-31.134
				c-0.729-0.42-1.448-0.772-2.151-1.077c-5.726,1.092-6.405,7.527-6.405,10.446c0,10.771,7.976,24.098,18.182,31.318
				c0.648,0.134,1.274,0.202,1.865,0.202C101.9,404.552,102.539,397.73,102.539,394.795z"/>
		</g>
		<g id="XMLID_73_">
			<path id="XMLID_75_" fill="#173D7A" d="M164.906,270.341c45.601,26.386,119.807,26.317,165.743-0.146
				c23.021-13.266,34.564-30.64,34.626-47.997V190.71l-0.641-21.485l-233.876,8.043l0.167,44.347
				C130.403,239.233,141.704,256.918,164.906,270.341z"/>
			<path id="XMLID_74_" fill="#5793CE" d="M164.292,218.642c-45.601-26.387-45.329-69.226,0.605-95.69
				c45.937-26.466,120.142-26.531,165.741-0.148c45.602,26.382,45.33,69.225-0.606,95.69
				C284.098,244.958,209.892,245.022,164.292,218.642z"/>
		</g>
		<g id="XMLID_71_">
			<path id="XMLID_72_" fill="#777777" d="M166.411,215.928c-44.445-25.712-44.182-67.468,0.591-93.26
				c44.769-25.794,117.09-25.857,161.533-0.146c44.445,25.715,44.18,67.468-0.591,93.264
				C283.175,241.579,210.853,241.643,166.411,215.928z"/>
		</g>
		
			<linearGradient id="XMLID_23_" gradientUnits="userSpaceOnUse" x1="189.3628" y1="214.3916" x2="417.5928" y2="214.3916" gradientTransform="matrix(1 0 0 -1 -56 355)">
			<stop  offset="0.0092" style="stop-color:#656565"/>
			<stop  offset="0.01" style="stop-color:#686868"/>
			<stop  offset="0.0156" style="stop-color:#7C7C7C"/>
			<stop  offset="0.0175" style="stop-color:#7C7C7C"/>
			<stop  offset="0.1569" style="stop-color:#7E7E7E"/>
			<stop  offset="0.2393" style="stop-color:#787878"/>
			<stop  offset="0.3489" style="stop-color:#676767"/>
			<stop  offset="0.3709" style="stop-color:#636363"/>
			<stop  offset="0.3782" style="stop-color:#4D4D4D"/>
			<stop  offset="0.7834" style="stop-color:#464646"/>
			<stop  offset="0.784" style="stop-color:#3E3E3E"/>
			<stop  offset="0.7861" style="stop-color:#282828"/>
			<stop  offset="0.8723" style="stop-color:#212121"/>
			<stop  offset="1" style="stop-color:#1C1C1C"/>
		</linearGradient>
		<path id="XMLID_70_" fill="url(#XMLID_23_)" d="M167.002,139.455c44.769-25.793,117.09-25.856,161.533-0.142
			c18.433,10.662,29.053,24.095,32.119,37.992c4.327-19.494-6.296-39.843-32.119-54.783
			c-44.443-25.712-116.765-25.648-161.533,0.146c-26.203,15.094-37.041,35.652-32.714,55.268
			C137.406,163.876,148.243,150.262,167.002,139.455z"/>
		<path id="XMLID_69_" fill="#494949" d="M342.003,169.156c11.638,6.72,11.579,17.651-0.135,24.413
			c-11.713,6.762-30.645,6.797-42.283,0.076c-11.64-6.721-11.579-17.649,0.132-24.412
			C311.43,162.469,330.36,162.437,342.003,169.156z"/>
		<g id="XMLID_16_">
			<g id="XMLID_28_">
				<polygon id="XMLID_68_" fill="#2B2B2B" points="182.113,191.093 172.473,196.658 157.681,188.118 167.319,182.553 				"/>
				<polygon id="XMLID_67_" fill="#525252" points="180.146,190.493 172.464,194.932 159.758,187.596 167.441,183.16 				"/>
				<polygon id="XMLID_66_" fill="#2B2B2B" points="192.545,185.071 182.904,190.637 168.109,182.095 177.749,176.529 				"/>
				<polygon id="XMLID_65_" fill="#525252" points="190.578,184.475 182.893,188.908 170.188,181.572 177.873,177.139 				"/>
				<polygon id="XMLID_64_" fill="#2B2B2B" points="202.974,179.049 193.335,184.613 178.541,176.073 188.182,170.508 				"/>
				<polygon id="XMLID_63_" fill="#525252" points="201.008,178.451 193.325,182.887 180.62,175.551 188.302,171.115 				"/>
				<polygon id="XMLID_62_" fill="#2B2B2B" points="213.404,173.025 203.767,178.592 188.973,170.05 198.613,164.485 				"/>
				<polygon id="XMLID_61_" fill="#525252" points="211.44,172.43 203.755,176.863 191.049,169.527 198.732,165.094 				"/>
				<polygon id="XMLID_60_" fill="#2B2B2B" points="223.836,167.004 214.195,172.57 199.403,164.028 209.04,158.462 				"/>
				<polygon id="XMLID_59_" fill="#525252" points="221.869,166.406 214.188,170.842 201.479,163.506 209.164,159.07 				"/>
				<polygon id="XMLID_58_" fill="#991F0F" points="234.268,160.98 224.628,166.547 209.835,158.007 219.473,152.44 				"/>
				<polygon id="XMLID_57_" fill="#D65442" points="232.299,160.385 224.616,164.819 211.911,157.483 219.596,153.049 				"/>
				<polygon id="XMLID_56_" fill="#991F0F" points="244.696,154.959 235.058,160.524 220.264,151.983 229.904,146.417 				"/>
				<polygon id="XMLID_55_" fill="#D65442" points="242.731,154.362 235.046,158.796 222.343,151.46 230.024,147.026 				"/>
				<polygon id="XMLID_54_" fill="#991F0F" points="255.127,148.938 245.49,154.501 230.694,145.961 240.335,140.396 				"/>
				<polygon id="XMLID_53_" fill="#D65442" points="253.163,148.339 245.479,152.774 232.771,145.442 240.455,141.003 				"/>
				<g id="XMLID_33_">
					<path id="XMLID_51_" fill="#FFFFFF" d="M175.971,191.072l-1.757,1.014l-5.582-3.223c-0.608-0.349-1.276-0.771-2.004-1.263
						c0.013,0.044,0.031,0.186,0.06,0.426c0.025,0.239,0.046,0.685,0.054,1.341l-2.072-0.048l0.202-2.824l1.585-0.913
						L175.971,191.072z"/>
					<path id="XMLID_48_" fill="#FFFFFF" d="M183.013,181.516c1.722,0.993,2.756,1.837,3.109,2.519
						c0.35,0.687,0.063,1.294-0.861,1.828c-0.925,0.533-1.978,0.696-3.152,0.482c-1.178-0.212-2.622-0.814-4.336-1.805
						c-1.718-0.99-2.752-1.834-3.105-2.526c-0.353-0.691-0.079-1.301,0.824-1.822c0.922-0.532,1.968-0.698,3.139-0.494
						C179.797,179.896,181.26,180.505,183.013,181.516z M179.555,183.511c1.331,0.769,2.284,1.255,2.867,1.455
						c0.571,0.198,1.025,0.209,1.348,0.02c0.217-0.127,0.285-0.28,0.209-0.466c-0.08-0.184-0.326-0.426-0.735-0.723
						c-0.41-0.297-1.078-0.713-2.012-1.253c-1.312-0.755-2.265-1.237-2.864-1.442c-0.6-0.202-1.061-0.214-1.378-0.032
						c-0.323,0.189-0.307,0.451,0.056,0.792C177.402,182.204,178.24,182.751,179.555,183.511z"/>
					<path id="XMLID_45_" fill="#FFFFFF" d="M193.441,175.494c1.726,0.995,2.759,1.835,3.113,2.518
						c0.347,0.686,0.062,1.293-0.863,1.827c-0.926,0.534-1.979,0.696-3.153,0.482c-1.176-0.21-2.62-0.813-4.333-1.805
						c-1.721-0.99-2.754-1.832-3.108-2.526c-0.354-0.691-0.076-1.3,0.825-1.819c0.924-0.534,1.969-0.699,3.137-0.497
						C190.229,173.877,191.691,174.482,193.441,175.494z M189.986,177.489c1.331,0.771,2.285,1.254,2.864,1.453
						c0.572,0.2,1.027,0.209,1.351,0.02c0.218-0.125,0.286-0.278,0.207-0.464c-0.078-0.184-0.323-0.426-0.732-0.72
						c-0.411-0.301-1.082-0.718-2.015-1.258c-1.309-0.753-2.266-1.235-2.863-1.44c-0.6-0.204-1.059-0.216-1.38-0.032
						c-0.322,0.188-0.306,0.451,0.059,0.793C187.831,176.182,188.669,176.733,189.986,177.489z"/>
					<path id="XMLID_43_" fill="#FFFFFF" d="M200.22,170.198c0.72-0.415,1.543-0.603,2.469-0.563
						c0.921,0.047,1.821,0.314,2.687,0.816c1.037,0.602,1.578,1.218,1.628,1.857c0.042,0.64-0.404,1.23-1.346,1.776
						c-0.84,0.484-1.677,0.785-2.514,0.902l-1.653-0.954c0.383-0.036,0.813-0.12,1.288-0.252c0.475-0.13,0.863-0.285,1.165-0.459
						c0.94-0.543,0.865-1.126-0.22-1.75c-1.011-0.587-1.969-0.615-2.884-0.087c-0.362,0.209-0.677,0.473-0.945,0.786l-0.999,0.089
						l-4.476-2.924l4.087-2.36l1.583,0.912l-2.562,1.479l1.924,1.261C199.647,170.56,199.901,170.382,200.22,170.198z"/>
					<path id="XMLID_41_" fill="#FFFFFF" d="M217.549,167.069l-1.757,1.014l-5.583-3.224c-0.607-0.352-1.275-0.771-2.005-1.262
						c0.015,0.041,0.031,0.186,0.06,0.426c0.027,0.238,0.047,0.685,0.056,1.341l-2.074-0.049l0.203-2.823l1.585-0.914
						L217.549,167.069z"/>
					<path id="XMLID_39_" fill="#FFFFFF" d="M229.482,160.179l-5.136,2.965l-1.319-0.764l-0.692-2.364
						c-0.192-0.649-0.361-1.119-0.506-1.404c-0.144-0.282-0.321-0.535-0.528-0.752c-0.212-0.217-0.473-0.416-0.786-0.596
						c-0.366-0.212-0.72-0.321-1.065-0.331c-0.344-0.012-0.649,0.061-0.91,0.211c-0.232,0.135-0.39,0.294-0.466,0.479
						c-0.08,0.188-0.105,0.454-0.077,0.804l-2.035-0.025c-0.061-0.563,0.013-1.015,0.214-1.351c0.201-0.338,0.534-0.638,0.99-0.903
						c0.774-0.444,1.603-0.661,2.487-0.653c0.886,0.009,1.73,0.245,2.534,0.708c0.363,0.211,0.669,0.435,0.916,0.665
						c0.247,0.233,0.453,0.49,0.621,0.771c0.169,0.282,0.313,0.594,0.426,0.937c0.112,0.343,0.301,1.167,0.568,2.479l0.052,0.028
						l3.138-1.811L229.482,160.179z"/>
					<path id="XMLID_37_" fill="#FFFFFF" d="M239.401,154.453l-5.134,2.964l-1.322-0.762l-0.691-2.368
						c-0.193-0.647-0.359-1.115-0.506-1.4c-0.142-0.286-0.322-0.538-0.531-0.752c-0.21-0.22-0.471-0.417-0.781-0.598
						c-0.366-0.21-0.72-0.322-1.068-0.33c-0.343-0.012-0.648,0.06-0.91,0.208c-0.232,0.134-0.386,0.294-0.467,0.479
						c-0.08,0.188-0.104,0.454-0.076,0.804l-2.036-0.027c-0.059-0.563,0.014-1.01,0.218-1.348c0.202-0.337,0.53-0.64,0.99-0.901
						c0.771-0.449,1.6-0.666,2.484-0.654c0.887,0.008,1.73,0.245,2.535,0.708c0.362,0.208,0.668,0.432,0.917,0.666
						c0.245,0.233,0.454,0.491,0.623,0.77c0.165,0.284,0.309,0.595,0.422,0.937c0.113,0.345,0.303,1.169,0.568,2.477l0.055,0.032
						l3.135-1.811L239.401,154.453z"/>
					<path id="XMLID_34_" fill="#FFFFFF" d="M244.983,145.029c3.668,2.116,4.267,3.888,1.801,5.313
						c-0.413,0.237-0.787,0.414-1.126,0.527l-1.491-0.858c0.391-0.118,0.717-0.249,0.974-0.396c0.731-0.422,1.032-0.885,0.905-1.396
						c-0.125-0.508-0.708-1.087-1.747-1.733l-0.06,0.035c0.202,0.277,0.271,0.548,0.205,0.809c-0.068,0.262-0.28,0.496-0.64,0.703
						c-0.647,0.376-1.419,0.513-2.305,0.416c-0.888-0.101-1.793-0.416-2.719-0.95c-1.013-0.587-1.584-1.186-1.71-1.801
						c-0.125-0.612,0.206-1.147,0.99-1.602c0.857-0.494,1.879-0.659,3.068-0.499C242.32,143.757,243.604,144.233,244.983,145.029z
						 M239.587,144.961c-0.263,0.152-0.331,0.353-0.206,0.606c0.129,0.25,0.498,0.555,1.105,0.901
						c0.498,0.289,0.954,0.475,1.371,0.56c0.414,0.08,0.76,0.047,1.034-0.113c0.249-0.144,0.325-0.351,0.222-0.623
						c-0.1-0.269-0.334-0.508-0.696-0.72c-0.566-0.325-1.11-0.544-1.64-0.665C240.25,144.791,239.853,144.808,239.587,144.961z"/>
				</g>
				<g id="XMLID_29_">
					<path id="XMLID_30_" fill="#FFFFFF" d="M172.364,203.061c-2.502,0-5.125-0.616-7.221-1.826l-14.701-8.488
						c-2.113-1.22-3.328-2.886-3.328-4.57c0-1.443,0.872-2.739,2.453-3.651l85.233-49.209c3.365-1.945,9.013-1.722,12.861,0.506
						l14.704,8.487c2.111,1.219,3.322,2.884,3.322,4.57c0,1.442-0.869,2.738-2.449,3.65l-85.232,49.209
						C176.474,202.623,174.463,203.061,172.364,203.061z M240.434,135.379c-1.857,0-3.624,0.371-4.941,1.131l-85.233,49.209
						c-1.153,0.666-1.762,1.517-1.762,2.457c0,1.179,0.961,2.409,2.636,3.378l14.7,8.486c3.408,1.964,8.557,2.192,11.482,0.504
						l85.232-49.209c1.152-0.664,1.761-1.516,1.761-2.456c0-1.179-0.961-2.41-2.634-3.379l-14.704-8.486
						C245.101,135.932,242.699,135.379,240.434,135.379z"/>
				</g>
			</g>
			<path id="XMLID_25_" fill="#494949" d="M266.364,179.879l-1.481,0.164c-2.797,0.307-5.515-0.678-6.249-2.26l-0.389-0.84
				c-1.272-2.752-7.735-3.161-10.068-0.636l-0.711,0.768c-1.34,1.453-4.384,2.072-6.987,1.425l-1.38-0.346
				c-4.528-1.127-9.143,1.536-7.19,4.153l0.598,0.796c1.122,1.502,0.051,3.258-2.465,4.031l-1.334,0.413
				c-4.372,1.348-3.664,5.076,1.103,5.813l1.454,0.222c2.744,0.425,4.449,1.998,3.914,3.611l-0.278,0.853
				c-0.927,2.808,4.57,4.795,8.563,3.1l1.216-0.518c2.296-0.977,5.493-0.773,7.347,0.466l0.979,0.656
				c3.222,2.152,9.368,0.9,9.577-1.95l0.064-0.87c0.121-1.64,2.404-2.959,5.248-3.027l1.504-0.037
				c4.937-0.123,7.106-3.672,3.379-5.529l-1.141-0.567c-2.146-1.069-2.496-2.916-0.803-4.24l0.895-0.703
				C274.67,182.521,271.225,179.345,266.364,179.879z M256.9,192.584c-3.401,1.964-8.897,1.974-12.275,0.023
				c-3.382-1.954-3.365-5.127,0.036-7.091c3.402-1.962,8.897-1.974,12.278-0.02C260.318,187.447,260.302,190.618,256.9,192.584z"/>
			
				<linearGradient id="XMLID_24_" gradientUnits="userSpaceOnUse" x1="327.7744" y1="170.3872" x2="299.1393" y2="170.3872" gradientTransform="matrix(1 0 0 -1 -56 355)">
				<stop  offset="0.0092" style="stop-color:#E9E9E9"/>
				<stop  offset="0.0093" style="stop-color:#E9E9E9"/>
				<stop  offset="0.0156" style="stop-color:#FDFDFD"/>
				<stop  offset="0.0175" style="stop-color:#FDFDFD"/>
				<stop  offset="0.1569" style="stop-color:#FFFFFF"/>
				<stop  offset="0.2457" style="stop-color:#F9F9F9"/>
				<stop  offset="0.3637" style="stop-color:#E8E8E8"/>
				<stop  offset="0.3709" style="stop-color:#E7E7E7"/>
				<stop  offset="0.3782" style="stop-color:#D4D4D4"/>
				<stop  offset="0.7403" style="stop-color:#CDCDCD"/>
				<stop  offset="0.7409" style="stop-color:#C6C6C6"/>
				<stop  offset="0.7434" style="stop-color:#B0B0B0"/>
				<stop  offset="0.8469" style="stop-color:#A9A9A9"/>
				<stop  offset="1" style="stop-color:#A4A4A4"/>
			</linearGradient>
			<path id="XMLID_22_" fill="url(#XMLID_24_)" d="M266.979,175.761l-1.482,0.164c-2.795,0.306-5.518-0.677-6.25-2.263l-0.391-0.837
				c-1.271-2.752-7.733-3.161-10.063-0.636l-0.711,0.768c-1.343,1.455-4.384,2.071-6.987,1.423l-1.383-0.342
				c-4.525-1.129-9.141,1.534-7.188,4.147l0.593,0.8c1.126,1.502,0.052,3.259-2.463,4.031l-1.334,0.413
				c-4.372,1.344-3.664,5.076,1.105,5.813l1.453,0.224c2.741,0.423,4.446,1.992,3.916,3.609l-0.284,0.853
				c-0.925,2.808,4.575,4.795,8.564,3.1l1.216-0.518c2.297-0.977,5.498-0.773,7.348,0.466l0.982,0.656
				c3.218,2.151,9.365,0.9,9.574-1.95l0.065-0.87c0.12-1.64,2.404-2.959,5.247-3.027l1.504-0.037
				c4.939-0.123,7.107-3.672,3.379-5.53l-1.138-0.566c-2.146-1.067-2.495-2.916-0.806-4.24l0.896-0.703
				C275.281,178.403,271.838,175.229,266.979,175.761z M257.516,188.466c-3.401,1.962-8.898,1.974-12.279,0.023
				c-3.382-1.954-3.365-5.127,0.036-7.091c3.402-1.965,8.897-1.974,12.279-0.023C260.934,183.329,260.915,186.502,257.516,188.466z"
				/>
			<path id="XMLID_19_" fill="#F4F4F4" d="M266.979,171.562l-1.482,0.162c-2.795,0.306-5.518-0.677-6.25-2.262l-0.391-0.836
				c-1.271-2.753-7.733-3.161-10.063-0.64l-0.711,0.771c-1.343,1.449-4.384,2.068-6.987,1.421l-1.383-0.343
				c-4.525-1.127-9.141,1.536-7.188,4.15l0.593,0.796c1.126,1.505,0.052,3.262-2.463,4.035l-1.334,0.41
				c-4.372,1.348-3.664,5.078,1.105,5.815l1.453,0.222c2.741,0.423,4.446,1.994,3.916,3.61l-0.284,0.854
				c-0.925,2.807,4.575,4.794,8.564,3.098l1.216-0.517c2.297-0.977,5.498-0.774,7.348,0.467l0.982,0.652
				c3.218,2.152,9.365,0.902,9.574-1.947l0.065-0.871c0.12-1.639,2.404-2.958,5.247-3.026l1.504-0.036
				c4.939-0.124,7.107-3.674,3.379-5.533l-1.138-0.564c-2.146-1.071-2.495-2.915-0.806-4.241l0.896-0.701
				C275.281,174.203,271.838,171.027,266.979,171.562z M257.516,184.266c-3.401,1.961-8.898,1.973-12.279,0.022
				c-3.382-1.952-3.365-5.125,0.036-7.091c3.402-1.964,8.897-1.973,12.279-0.021C260.934,179.128,260.915,182.301,257.516,184.266z"
				/>
			<path id="XMLID_18_" fill="#A93232" d="M311.349,181.798c-5.158,0.892-19.547-0.233-24.3,0.687v3.917
				c0,0,14.119,2.273,24.68,3.673c2.341,1.805,6.104,2.947,10.315,2.867c6.889-0.129,12.322-3.459,12.141-7.433
				c-0.184-3.977-5.915-7.091-12.802-6.962C317.17,178.625,313.521,179.911,311.349,181.798z"/>
			<path id="XMLID_17_" fill="#D65442" d="M311.349,177.884c-10.415,1.798-24.3,4.601-24.3,4.601s14.119,2.272,24.68,3.674
				c2.341,1.805,6.104,2.947,10.315,2.867c6.889-0.13,12.322-3.459,12.141-7.433c-0.184-3.975-5.915-7.093-12.802-6.962
				C317.17,174.711,313.521,175.993,311.349,177.884z"/>
		</g>
		<path id="XMLID_15_" fill="#BFBFBF" d="M328.535,122.522c-44.443-25.714-116.765-25.648-161.533,0.146
			c-4.617,2.658-8.642,5.522-12.314,8.486c43.991-16.76,102.053-15.828,139.093,4.01c42.851,22.951,41.298,62.467-3.475,88.26
			c-7.356,4.238-15.47,7.775-24.002,10.739c22.541-2.232,44.188-8.322,61.641-18.377C372.715,189.99,372.98,148.237,328.535,122.522
			z"/>
		<g id="XMLID_11_">
			<path id="XMLID_14_" fill="#696969" d="M327.959,191.567c-10.24,5.876-21.879,10.465-34.357,13.654
				c-20.314,5.261-42.758,6.884-64.355,4.927c-12.146-1.119-24.063-3.304-35.2-6.662c-9.962-3.021-19.308-6.939-27.646-11.808
				c-6.154-3.523-11.418-7.385-15.838-11.471c-27.644-25.406-22.158-59.541,16.454-81.761c16.396-9.457,36.429-15.445,57.472-17.962
				c19.644-2.406,40.18-1.79,59.319,1.846c11.584,2.237,22.664,5.542,32.738,9.962c4.195,1.791,8.169,3.805,11.974,5.988
				c12.202,7.051,20.985,15.332,26.473,24.119C369.484,145.736,360.473,172.82,327.959,191.567z"/>
			
				<linearGradient id="XMLID_26_" gradientUnits="userSpaceOnUse" x1="189.2588" y1="236.5825" x2="417.666" y2="236.5825" gradientTransform="matrix(1 0 0 -1 -56 355)">
				<stop  offset="0.0092" style="stop-color:#F3F3F3"/>
				<stop  offset="0.0156" style="stop-color:#FFFFFF"/>
				<stop  offset="0.0302" style="stop-color:#FEFEFE"/>
				<stop  offset="0.1765" style="stop-color:#FCFCFC"/>
				<stop  offset="0.3709" style="stop-color:#F2F2F2"/>
				<stop  offset="0.3782" style="stop-color:#E7E7E7"/>
				<stop  offset="0.7403" style="stop-color:#E3E3E3"/>
				<stop  offset="0.7434" style="stop-color:#D3D3D3"/>
				<stop  offset="0.7925" style="stop-color:#D1D1D1"/>
				<stop  offset="1" style="stop-color:#CCCCCC"/>
			</linearGradient>
			<path id="XMLID_13_" fill="url(#XMLID_26_)" d="M167.002,123.287c44.769-25.79,117.09-25.857,161.533-0.142
				c16.617,9.613,26.975,21.47,31.103,33.896c6.809-20.667-3.521-42.8-31.103-58.756C284.092,72.57,211.77,72.634,167.002,98.427
				c-28.033,16.151-38.607,38.557-31.693,59.367C139.472,145.161,150.014,133.074,167.002,123.287z"/>
			
				<linearGradient id="XMLID_27_" gradientUnits="userSpaceOnUse" x1="408.0381" y1="165.2407" x2="191.6852" y2="165.6184" gradientTransform="matrix(1 0 0 -1 -56 355)">
				<stop  offset="0.0092" style="stop-color:#DDDDDD"/>
				<stop  offset="0.0156" style="stop-color:#E8E8E8"/>
				<stop  offset="0.0302" style="stop-color:#E7E7E7"/>
				<stop  offset="0.1765" style="stop-color:#E5E5E5"/>
				<stop  offset="0.3709" style="stop-color:#DCDCDC"/>
				<stop  offset="0.3782" style="stop-color:#D1D1D1"/>
				<stop  offset="0.7403" style="stop-color:#CDCDCD"/>
				<stop  offset="0.7434" style="stop-color:#BCBCBC"/>
				<stop  offset="0.7925" style="stop-color:#BABABA"/>
				<stop  offset="1" style="stop-color:#B5B5B5"/>
			</linearGradient>
			<path id="XMLID_12_" fill="url(#XMLID_27_)" d="M361.668,143.531l-0.077,0.002c0.503,17.325-10.662,34.77-33.646,48.014
				c-44.771,25.792-117.092,25.857-161.533,0.144c-19.464-11.264-30.35-25.599-32.683-40.323h-0.003l0.168,17.689
				c-0.511,17.173,10.503,34.41,33.116,47.494c44.443,25.715,116.766,25.648,161.533-0.144
				c22.439-12.927,33.694-29.86,33.748-46.776v-5.163L361.668,143.531z"/>
		</g>
		
			<linearGradient id="XMLID_31_" gradientUnits="userSpaceOnUse" x1="399.2188" y1="196.3872" x2="223.4055" y2="222.969" gradientTransform="matrix(1 0 0 -1 -56 355)">
			<stop  offset="0.0588" style="stop-color:#3C3D3D"/>
			<stop  offset="0.1725" style="stop-color:#3C3D3D"/>
			<stop  offset="1" style="stop-color:#444A49"/>
		</linearGradient>
		<path id="XMLID_10_" fill="url(#XMLID_31_)" d="M283.807,82.331l-89.762,121.155c-9.962-3.021-19.308-6.939-27.646-11.808
			c-6.154-3.523-11.418-7.385-15.838-11.471l73.926-99.723C244.131,78.079,264.667,78.695,283.807,82.331z"/>
		
			<linearGradient id="XMLID_32_" gradientUnits="userSpaceOnUse" x1="398.7412" y1="193.2197" x2="222.929" y2="219.8013" gradientTransform="matrix(1 0 0 -1 -56 355)">
			<stop  offset="0.0588" style="stop-color:#3C3D3D"/>
			<stop  offset="0.1725" style="stop-color:#3C3D3D"/>
			<stop  offset="1" style="stop-color:#444A49"/>
		</linearGradient>
		<path id="XMLID_9_" fill="url(#XMLID_32_)" d="M354.99,122.4L293.6,205.221c-20.313,5.261-42.757,6.884-64.354,4.927l87.3-117.855
			c4.195,1.791,8.169,3.805,11.974,5.988C340.721,105.332,349.504,113.613,354.99,122.4z"/>
		
			<linearGradient id="XMLID_35_" gradientUnits="userSpaceOnUse" x1="281.5176" y1="36.9009" x2="314.046" y2="134.1361" gradientTransform="matrix(1 0 0 -1 -56 355)">
			<stop  offset="0.0588" style="stop-color:#171717"/>
			<stop  offset="0.1725" style="stop-color:#171717"/>
			<stop  offset="1" style="stop-color:#212423"/>
		</linearGradient>
		<path id="XMLID_8_" fill="url(#XMLID_35_)" d="M293.602,205.222l-6.83,26.584c-20.424,4.308-42.476,5.148-63.515,2.461
			c3.189-12.927,5.988-24.118,5.988-24.118h0.053c21.603,1.957,43.988,0.334,64.246-4.927H293.602z"/>
		
			<linearGradient id="XMLID_36_" gradientUnits="userSpaceOnUse" x1="196.4751" y1="65.3491" x2="229.0031" y2="162.5832" gradientTransform="matrix(1 0 0 -1 -56 355)">
			<stop  offset="0.0588" style="stop-color:#171717"/>
			<stop  offset="0.1725" style="stop-color:#171717"/>
			<stop  offset="1" style="stop-color:#212423"/>
		</linearGradient>
		<path id="XMLID_7_" fill="url(#XMLID_36_)" d="M194.045,203.486l-5.82,22.722c-7.557-2.688-14.662-5.877-21.209-9.681
			c-8.897-5.148-15.948-10.913-21.266-17.066c2.684-10.746,4.812-19.253,4.812-19.253c4.42,4.086,9.684,7.947,15.838,11.471
			c8.338,4.814,17.627,8.732,27.533,11.753L194.045,203.486z"/>
		<g id="XMLID_2_">
			<path id="XMLID_4_" fill="#CCCCCC" stroke="#FFFFFF" stroke-width="0.8497" stroke-miterlimit="10" d="M165.077,206.078
				c46.057,26.65,121.005,26.581,167.399-0.146c23.252-13.397,34.911-30.946,34.974-48.477v-31.803l-0.646-21.7l-236.214,8.124
				l0.169,44.79C130.229,174.66,141.643,192.521,165.077,206.078z"/>
			<path id="XMLID_3_" fill="#CCCCCC" stroke="#FFFFFF" stroke-miterlimit="10" d="M164.457,153.862
				c-46.057-26.65-45.782-69.918,0.611-96.647c46.396-26.73,121.343-26.796,167.398-0.15c46.058,26.646,45.784,69.917-0.613,96.647
				C285.46,180.441,210.513,180.507,164.457,153.862z"/>
			<path id="XMLID_95_" fill="#CCCCCC" stroke="#FFFFFF" stroke-width="0.8497" stroke-miterlimit="10" d="M174.587,143.667
				c-41.045-21.587-40.804-56.634,0.55-78.285c41.351-21.652,108.146-21.705,149.19-0.122c41.062,21.583,40.808,56.633-0.535,78.285
				C282.438,165.195,215.641,165.249,174.587,143.667z"/>
			<g>
				<polygon fill="#999999" stroke="#FFFFFF" stroke-miterlimit="10" points="341.533,100.581 322.795,114.556 320.795,50.61 
					338.533,39.635 				"/>
				<polygon fill="#999999" stroke="#FFFFFF" stroke-miterlimit="10" points="320.795,51.61 300.057,39.635 320.795,27.663 
					339.533,38.635 				"/>
				<polygon fill="#CCCCCC" stroke="#FFFFFF" stroke-miterlimit="10" points="322.795,114.556 294.057,98.581 300.057,39.635 
					320.795,51.61 				"/>
			</g>
			<g>
				<g>
					<g>
						<path fill="#999999" d="M220.747,82.087l-2.414,1.76l5.827,3.352c0.415,0.238,0.498,0.482,0.231,0.676l-1.73,1.262
							c-0.267,0.194-0.648,0.169-1.063-0.069l-5.827-3.352l-3.696,2.694c-0.266,0.194-0.649,0.169-1.063-0.069l-2.849-1.64
							c-0.414-0.237-0.498-0.481-0.231-0.675l10.82-7.888c0.266-0.194,0.649-0.169,1.063,0.069l3.496,2.012l5.956,3.426
							c0.415,0.239,0.499,0.482,0.232,0.676l-1.731,1.262c-0.267,0.194-0.649,0.169-1.064-0.069L220.747,82.087z"/>
						<path fill="#999999" d="M232.708,98.02l-1.731,1.262c-0.266,0.194-0.649,0.17-1.063-0.069l-7.64-4.395l-1.425-0.819
							c-0.414-0.238-0.498-0.481-0.231-0.675l10.82-7.888c0.266-0.194,0.649-0.169,1.063,0.069l2.849,1.639
							c0.414,0.238,0.499,0.482,0.232,0.676l-8.672,6.323l5.567,3.203C232.891,97.583,232.975,97.826,232.708,98.02z"/>
						<path fill="#999999" d="M282.969,115.143l-15.473,5.233c-0.354,0.123-0.711,0.046-1.074-0.162l-3.314-1.907
							c-0.362-0.208-0.521-0.43-0.375-0.672l2.732-4.659l-6.826,2.306c-0.352,0.123-0.711,0.046-1.074-0.162l-3.313-1.907
							c-0.362-0.208-0.521-0.431-0.376-0.672l6.2-10.566c0.172-0.293,0.545-0.295,1.011-0.027l3.03,1.743
							c0.389,0.224,0.487,0.454,0.333,0.669l-4.786,7.407l8.174-2.829l1.097-1.869c0.17-0.293,0.545-0.295,1.01-0.027l2.513,1.445
							c0.39,0.224,0.487,0.454,0.333,0.669l-4.786,7.407l10.795-3.951c0.31-0.125,0.677-0.088,1.065,0.135l3.029,1.743
							C283.357,114.758,283.398,114.999,282.969,115.143z"/>
					</g>
					<g>
						<path fill="#999999" d="M207.606,88.435c0.108,0.117,0.186,0.244,0.232,0.381l-0.646-0.042
							c-0.029-0.149-0.163-0.291-0.398-0.427c-0.235-0.136-0.423-0.196-0.56-0.182c-0.137,0.015-0.198,0.059-0.183,0.133
							c0.015,0.075,0.128,0.189,0.338,0.344c0.231,0.155,0.405,0.323,0.52,0.504c0.115,0.182,0.075,0.343-0.119,0.484
							c-0.152,0.111-0.391,0.144-0.717,0.099c-0.326-0.045-0.634-0.15-0.922-0.316c-0.273-0.157-0.478-0.307-0.61-0.45
							c-0.133-0.142-0.223-0.282-0.27-0.418l0.646,0.042c0.03,0.149,0.193,0.32,0.49,0.513c0.263,0.151,0.462,0.219,0.598,0.204
							c0.137-0.015,0.208-0.067,0.215-0.156c0.008-0.089-0.112-0.216-0.357-0.379c-0.218-0.147-0.389-0.306-0.509-0.475
							c-0.121-0.168-0.088-0.32,0.097-0.455c0.168-0.122,0.414-0.156,0.739-0.101c0.325,0.055,0.605,0.15,0.84,0.285
							C207.306,88.18,207.497,88.317,207.606,88.435z"/>
						<path fill="#999999" d="M206.762,90.339l1.895-1.382l0.196,0.113l0.343,1.416l2.214,0.055l0.196,0.112l-1.895,1.382
							l-0.589-0.339l1.096-0.803l-1.515-0.048l-0.253-0.969l-1.099,0.801L206.762,90.339z"/>
						<path fill="#999999" d="M210.143,92.284l3.075-0.704l0.589,0.339l-0.716,2.059l-0.629-0.36l0.115-0.313l-1.337-0.77
							l-0.467,0.11L210.143,92.284z M213.023,92.127l-1.169,0.267l0.884,0.509L213.023,92.127z"/>
						<path fill="#999999" d="M216.131,94.65l-0.091,1.025l-0.677-0.389l0.079-0.977L214.903,94l-0.784,0.571l-0.59-0.339
							l1.895-1.381l1.285,0.738c0.688,0.396,0.851,0.727,0.487,0.992C216.923,94.78,216.567,94.804,216.131,94.65z M215.257,93.742
							l0.825,0.475c0.239,0.134,0.431,0.154,0.574,0.058c0.118-0.095,0.063-0.211-0.165-0.349l-0.831-0.478L215.257,93.742z"/>
						<path fill="#999999" d="M220.646,95.853l-0.354,0.258l-0.982-0.564l-1.542,1.124l-0.59-0.339l1.542-1.124l-0.982-0.565
							l0.354-0.258L220.646,95.853z"/>
						<path fill="#999999" d="M220.565,98.279l1.895-1.381l0.197,0.112L223,98.426l2.213,0.054l0.196,0.113l-1.895,1.381
							l-0.589-0.339l1.097-0.803l-1.515-0.048l-0.253-0.969l-1.099,0.801L220.565,98.279z"/>
						<path fill="#999999" d="M224.093,100.308l1.894-1.381l2.168,1.246l-0.354,0.258l-1.576-0.907l-0.404,0.295l1.181,0.68
							l-0.353,0.257l-1.181-0.679l-0.431,0.314l1.571,0.904l-0.354,0.258L224.093,100.308z"/>
						<path fill="#999999" d="M231.153,101.897l-0.354,0.258l-0.983-0.565l-1.542,1.124l-0.589-0.339l1.542-1.124l-0.982-0.565
							l0.354-0.258L231.153,101.897z"/>
						<path fill="#999999" d="M229.688,103.526l1.894-1.381l2.167,1.245l-0.354,0.258l-1.576-0.906l-0.404,0.295l1.182,0.679
							l-0.353,0.257l-1.182-0.679l-0.431,0.314l1.572,0.904l-0.354,0.258L229.688,103.526z"/>
						<path fill="#999999" d="M235.05,105.532l-0.092,1.025l-0.676-0.389l0.079-0.977l-0.539-0.31l-0.784,0.571l-0.589-0.339
							l1.895-1.382l1.285,0.739c0.688,0.396,0.85,0.726,0.486,0.991C235.841,105.663,235.486,105.686,235.05,105.532z
							 M234.175,104.624l0.825,0.475c0.24,0.135,0.432,0.154,0.575,0.059c0.118-0.095,0.063-0.211-0.166-0.349l-0.831-0.478
							L234.175,104.624z"/>
						<path fill="#999999" d="M237.161,105.351l0.588,0.338l-1.896,1.382l-0.588-0.338L237.161,105.351z"/>
						<path fill="#999999" d="M236.443,107.412l1.895-1.382l0.197,0.113l0.659,1.928l1.188-0.866l0.589,0.339l-1.895,1.381
							l-0.216-0.124l-0.652-1.908l-1.175,0.856L236.443,107.412z"/>
						<path fill="#999999" d="M240.224,109.232c-0.102-0.294-0.016-0.541,0.256-0.739c0.267-0.194,0.633-0.275,1.095-0.246
							c0.464,0.03,0.903,0.165,1.32,0.404c0.42,0.242,0.697,0.511,0.83,0.807l-0.669-0.024c-0.099-0.189-0.278-0.358-0.538-0.507
							c-0.265-0.151-0.532-0.235-0.799-0.251c-0.268-0.017-0.483,0.036-0.647,0.155c-0.175,0.129-0.233,0.278-0.173,0.447
							c0.059,0.169,0.221,0.33,0.485,0.482c0.212,0.122,0.401,0.195,0.57,0.222l0.325-0.237l-0.394-0.226l0.354-0.258l0.981,0.565
							l-0.884,0.645c-0.468-0.05-0.913-0.196-1.335-0.438C240.584,109.793,240.325,109.525,240.224,109.232z"/>
						<path fill="#999999" d="M247.48,111.371c0.109,0.118,0.186,0.244,0.233,0.381l-0.646-0.042
							c-0.03-0.148-0.163-0.291-0.399-0.427c-0.235-0.136-0.422-0.196-0.56-0.182c-0.136,0.015-0.197,0.059-0.183,0.134
							c0.016,0.074,0.128,0.189,0.338,0.343c0.232,0.155,0.406,0.324,0.521,0.505c0.115,0.181,0.075,0.343-0.119,0.484
							c-0.152,0.111-0.391,0.143-0.717,0.099c-0.326-0.044-0.634-0.15-0.922-0.316c-0.273-0.157-0.478-0.307-0.61-0.449
							c-0.133-0.143-0.223-0.282-0.27-0.419l0.646,0.042c0.031,0.149,0.194,0.32,0.491,0.513c0.263,0.151,0.461,0.219,0.598,0.203
							c0.137-0.014,0.208-0.066,0.215-0.156c0.007-0.089-0.112-0.215-0.357-0.378c-0.219-0.147-0.39-0.306-0.51-0.474
							s-0.087-0.32,0.098-0.455c0.168-0.123,0.414-0.156,0.739-0.102c0.325,0.054,0.605,0.149,0.84,0.285
							C247.18,111.116,247.372,111.254,247.48,111.371z"/>
						<path fill="#999999" d="M247.181,113.233c-0.101-0.294-0.016-0.539,0.252-0.735c0.27-0.196,0.636-0.28,1.099-0.25
							c0.463,0.03,0.903,0.166,1.323,0.407c0.419,0.241,0.679,0.508,0.779,0.802c0.103,0.294,0.017,0.54-0.253,0.736
							c-0.27,0.197-0.636,0.28-1.099,0.25c-0.463-0.03-0.904-0.166-1.323-0.407C247.541,113.795,247.282,113.528,247.181,113.233z
							 M248.316,113.78c0.26,0.149,0.529,0.229,0.807,0.242c0.277,0.011,0.5-0.044,0.668-0.167s0.228-0.273,0.178-0.45
							c-0.05-0.177-0.208-0.341-0.47-0.493c-0.261-0.15-0.53-0.231-0.807-0.242c-0.278-0.011-0.5,0.045-0.668,0.168
							c-0.169,0.123-0.229,0.272-0.178,0.449C247.896,113.464,248.053,113.628,248.316,113.78z"/>
						<path fill="#999999" d="M252.363,114.098l-1.541,1.124l1.572,0.904l-0.354,0.258l-2.161-1.243l1.895-1.382L252.363,114.098z"
							/>
						<path fill="#999999" d="M254.966,115.595l-1.099,0.801c-0.145,0.104-0.186,0.219-0.12,0.343
							c0.063,0.124,0.192,0.243,0.39,0.356c0.197,0.112,0.396,0.183,0.592,0.208c0.199,0.027,0.371-0.012,0.515-0.116l1.099-0.802
							l0.59,0.339l-1.201,0.875c-0.192,0.142-0.478,0.191-0.854,0.15c-0.378-0.041-0.751-0.167-1.118-0.378
							c-0.366-0.211-0.603-0.435-0.71-0.673c-0.107-0.238-0.064-0.427,0.128-0.569l1.2-0.875L254.966,115.595z"/>
						<path fill="#999999" d="M259.973,118.475l-0.354,0.258l-0.983-0.565l-1.542,1.124l-0.588-0.339l1.541-1.124l-0.982-0.565
							l0.354-0.258L259.973,118.475z"/>
						<path fill="#999999" d="M260.412,118.726l0.588,0.338l-1.896,1.382l-0.588-0.338L260.412,118.726z"/>
						<path fill="#999999" d="M260.24,120.746c-0.102-0.294-0.016-0.54,0.253-0.736c0.271-0.196,0.636-0.279,1.098-0.25
							c0.464,0.03,0.904,0.166,1.323,0.407s0.68,0.509,0.779,0.803c0.101,0.294,0.017,0.539-0.254,0.735
							c-0.27,0.197-0.635,0.28-1.098,0.25c-0.464-0.03-0.904-0.166-1.322-0.407C260.6,121.308,260.34,121.04,260.24,120.746z
							 M261.376,121.292c0.261,0.149,0.528,0.23,0.808,0.242c0.276,0.012,0.5-0.044,0.668-0.167s0.229-0.272,0.179-0.45
							c-0.052-0.177-0.207-0.341-0.472-0.493c-0.261-0.15-0.528-0.23-0.807-0.242c-0.277-0.011-0.5,0.045-0.669,0.168
							s-0.229,0.272-0.179,0.449C260.955,120.976,261.111,121.14,261.376,121.292z"/>
						<path fill="#999999" d="M262.932,122.648l1.896-1.382l0.196,0.113l0.66,1.928l1.188-0.866l0.589,0.339l-1.896,1.381
							l-0.217-0.124l-0.65-1.908l-1.176,0.856L262.932,122.648z"/>
						<path fill="#999999" d="M269.604,124.097c0.108,0.118,0.187,0.244,0.231,0.381l-0.646-0.042
							c-0.028-0.149-0.162-0.292-0.398-0.427c-0.234-0.135-0.423-0.196-0.561-0.182c-0.137,0.015-0.197,0.059-0.184,0.134
							c0.016,0.075,0.129,0.189,0.339,0.343c0.232,0.155,0.405,0.324,0.521,0.505c0.114,0.181,0.073,0.343-0.119,0.484
							c-0.152,0.111-0.392,0.144-0.718,0.099c-0.325-0.045-0.635-0.151-0.922-0.316c-0.272-0.157-0.477-0.308-0.609-0.45
							s-0.223-0.282-0.27-0.418l0.646,0.042c0.029,0.149,0.193,0.32,0.491,0.513c0.262,0.151,0.461,0.219,0.598,0.204
							c0.136-0.015,0.207-0.067,0.215-0.157c0.007-0.089-0.112-0.215-0.356-0.379c-0.219-0.147-0.391-0.306-0.51-0.474
							c-0.121-0.168-0.088-0.32,0.097-0.455c0.168-0.122,0.413-0.156,0.739-0.102c0.324,0.055,0.604,0.149,0.84,0.285
							C269.305,123.842,269.495,123.98,269.604,124.097z"/>
					</g>
					<g>
						<path fill="none" d="M243.647,103.777c2.645,1.067,5.567,1.111,7.326-0.171c2.08-1.517,1.133-3.865-1.821-5.563
							c-2.953-1.698-6.664-2.03-8.744-0.513c-1.83,1.333-1.315,3.309,0.84,4.92L243.647,103.777z"/>
						<g>
							<path fill="none" d="M243.755,103.818c2.616,1.025,5.483,1.053,7.218-0.212c2.08-1.517,1.133-3.865-1.821-5.563
								c-2.953-1.698-6.664-2.03-8.744-0.513c-1.814,1.321-1.322,3.275,0.788,4.879L243.755,103.818z"/>
							<path fill="#999999" d="M255.115,105.989c3.43-2.5,1.838-6.847-3.365-9.839c-5.204-2.993-12.055-3.503-15.483-1.003
								c-3.034,2.212-2.136,5.867,1.716,8.755l3.213-1.493c-2.109-1.604-2.602-3.558-0.788-4.879
								c2.081-1.517,5.792-1.186,8.744,0.513s3.901,4.046,1.821,5.563c-1.735,1.265-4.602,1.238-7.218,0.212l-2.028,2.203
								C246.555,108.059,252.131,108.166,255.115,105.989z"/>
							<g>
								<polygon fill="#999999" points="246.552,100.23 237.911,104.247 241.141,106.104 								"/>
							</g>
						</g>
					</g>
				</g>
			</g>
		</g>
	</g>
</g>
<g>
	<g>
		<path opacity="0.5" fill="#173D7A" enable-background="new    " d="M112.265,211.167c-10.503,5.531-27.532,5.531-38.035,0
			c-10.504-5.532-10.504-14.502,0-20.035c10.501-5.532,27.531-5.532,38.035,0C122.768,196.665,122.77,205.633,112.265,211.167z"/>
		<path fill="#CC0000" d="M123.846,189.033v-7.837h-1.623c-1.454-2.287-3.881-4.441-7.34-6.264c-11.95-6.294-31.325-6.294-43.274,0
			c-3.459,1.822-5.884,3.975-7.341,6.264h-1.619v7.795h0.002c-0.021,4.138,2.963,8.279,8.959,11.438
			c11.949,6.294,31.323,6.294,43.273,0.001C120.86,197.284,123.846,193.158,123.846,189.033z"/>
		<path fill="#CC0000" d="M114.883,192.59c-11.95,6.294-31.324,6.294-43.273,0c-11.95-6.294-11.951-16.497-0.001-22.79
			c11.949-6.294,31.324-6.294,43.274,0C126.833,176.094,126.833,186.297,114.883,192.59z"/>
		<path fill="#FFFFFF" d="M114.883,192.59c-11.95,6.294-31.324,6.294-43.273,0c-5.728-3.016-8.678-6.931-8.916-10.883
			c-0.26,4.294,2.691,8.63,8.916,11.908c11.949,6.295,31.323,6.295,43.273,0c6.223-3.276,9.173-7.614,8.917-11.908
			C123.563,185.66,120.61,189.576,114.883,192.59z"/>
	</g>
	<g>
		<path fill="#FFFFFF" d="M78.498,186.531c-0.516-0.271-0.809-0.64-0.807-1.027l0.03-10.499c0.002-0.802,1.237-1.449,2.759-1.449
			c1.522,0.001,2.749,0.651,2.748,1.452l-0.024,8.707l27.7-3.094c1.49-0.168,2.951,0.334,3.266,1.118
			c0.317,0.783-0.633,1.553-2.121,1.72l-31.031,3.466c-0.813,0.092-1.662-0.017-2.308-0.291
			C78.636,186.599,78.566,186.567,78.498,186.531z"/>
	</g>
</g>
<g>
	<g>
		<polygon opacity="0.5" fill="#173D7A" enable-background="new    " points="468.088,192.247 447.348,180.273 468.088,168.3 
			488.826,180.274 		"/>
		<polygon fill="#990000" points="488.826,165.071 468.088,177.046 468.088,153.1 488.826,141.125 		"/>
		<polygon fill="#CC0000" points="468.088,153.1 447.35,141.125 468.088,129.153 488.826,141.125 		"/>
		<polygon fill="#CC0000" points="468.088,177.046 447.35,165.071 447.35,141.125 468.088,153.1 		"/>
	</g>
	<polygon fill="#FFFFFF" points="460.619,164.108 454.818,160.76 454.818,154.063 460.619,157.412 	"/>
</g>
<g>
	<g>
		<polygon opacity="0.5" fill="#173D7A" enable-background="new    " points="376.16,488.681 299.91,443.424 312.891,434.077 
			389.141,477.624 		"/>
		<polygon fill="#173D7A" points="392.561,467.661 379.58,478.718 379.58,436.088 392.561,428.453 		"/>
		<polygon fill="#D4ECFF" points="379.58,436.088 303.333,390.833 318.021,384.906 392.561,428.453 		"/>
		<polygon fill="#5793CE" points="379.58,478.718 303.333,433.461 303.333,390.833 379.58,436.088 		"/>
	</g>
	<g>
		<g>
			<path fill="#FFFFFF" d="M328.638,435.114c1.16,1.425,2.542,2.662,4.028,3.521c1.459,0.841,2.816,1.202,3.962,1.134l0.004,0.001
				l0.657,1.354c-1.335,0.085-2.921-0.333-4.623-1.316c-1.739-1.002-3.354-2.454-4.704-4.123l0.674-0.57H328.638z"/>
			<path fill="#FFFFFF" d="M326.996,436.502c1.625,2.021,3.573,3.777,5.672,4.989c2.053,1.183,3.962,1.684,5.564,1.569l0.91,1.873
				c-1.86,0.142-4.087-0.438-6.476-1.815c-2.444-1.411-4.718-3.462-6.607-5.821L326.996,436.502z"/>
			<path fill="#FFFFFF" d="M332.668,444.492c2.675,1.543,5.164,2.188,7.246,2.026l1.178,2.423c-2.42,0.194-5.313-0.549-8.424-2.346
				c-3.188-1.842-6.15-4.524-8.604-7.604l1.209-1.025C327.385,440.61,329.929,442.911,332.668,444.492z"/>
		</g>
		<g>
			<path fill="#FFFFFF" d="M328.638,422.688c1.16-0.087,2.542,0.273,4.028,1.133c1.459,0.842,2.816,2.049,3.962,3.437l0.004,0.004
				l0.657-0.592c-1.335-1.626-2.921-3.039-4.623-4.024c-1.739-1.002-3.354-1.416-4.704-1.308l0.674,1.347L328.638,422.688z"/>
			<path fill="#FFFFFF" d="M326.996,419.402c1.625-0.145,3.573,0.351,5.672,1.563c2.053,1.186,3.962,2.892,5.564,4.854l0.91-0.818
				c-1.86-2.291-4.087-4.281-6.476-5.662c-2.444-1.411-4.718-1.984-6.607-1.807L326.996,419.402z"/>
			<path fill="#FFFFFF" d="M332.668,417.966c2.675,1.543,5.164,3.772,7.246,6.339l1.178-1.062c-2.42-2.986-5.313-5.583-8.424-7.38
				c-3.188-1.84-6.15-2.58-8.604-2.329l1.209,2.416C327.385,415.745,329.929,416.383,332.668,417.966z"/>
		</g>
		<g>
			<path fill="#FFFFFF" d="M319.874,426.32l6.134,3.542v2.79l-9.795-5.655V412.89l3.661,2.108V426.32z"/>
			<path fill="#FFFFFF" d="M332.43,425.704c1.739,1.006,3.097,2.308,4.069,3.908c0.975,1.604,1.46,3.188,1.46,4.75
				c0,1.543-0.507,2.539-1.517,2.985c-1.014,0.444-2.356,0.185-4.034-0.785c-1.626-0.938-2.926-2.196-3.9-3.779
				c-0.973-1.583-1.461-3.173-1.461-4.771c0-1.109,0.222-1.927,0.661-2.445c0.438-0.522,1.042-0.801,1.811-0.831
				C330.286,424.706,331.258,425.026,332.43,425.704z M332.521,427.771c-0.64-0.369-1.118-0.422-1.441-0.155
				c-0.323,0.264-0.484,1.067-0.484,2.411c0,1.235,0.153,2.208,0.462,2.923s0.788,1.263,1.441,1.64
				c0.569,0.331,1.032,0.367,1.385,0.112c0.354-0.254,0.53-1.027,0.53-2.316c0-1.369-0.155-2.387-0.467-3.06
				C333.634,428.658,333.161,428.141,332.521,427.771z"/>
			<path fill="#FFFFFF" d="M343.649,437.247v5.591l-3.638-2.103v-14.107l6.778,3.912c1.25,0.722,2.254,1.437,3.012,2.136
				c0.755,0.702,1.383,1.552,1.881,2.549c0.497,0.995,0.747,1.928,0.747,2.795c0,1.693-0.893,2.396-2.678,2.104l2.848,7.881
				l-3.99-2.305l-2.369-6.96L343.649,437.247z M343.649,431.24v3.599l2.215,1.277c0.722,0.416,1.247,0.675,1.575,0.77
				c0.327,0.098,0.617,0.06,0.875-0.11c0.257-0.177,0.385-0.469,0.385-0.881c0-0.393-0.128-0.819-0.385-1.277
				c-0.256-0.457-0.535-0.811-0.837-1.056s-0.864-0.607-1.694-1.088L343.649,431.24z"/>
			<path fill="#FFFFFF" d="M363.277,454.17l-3.266-1.884c-0.104-0.476-0.159-1.049-0.159-1.728c-0.57,0.414-1.141,0.577-1.708,0.496
				c-0.567-0.084-1.213-0.333-1.934-0.748c-1.069-0.615-1.931-1.383-2.59-2.29c-0.658-0.911-0.987-1.814-0.987-2.71
				c0-0.655,0.191-1.146,0.576-1.477c0.383-0.329,0.998-0.405,1.85-0.23c0.852,0.178,2.397,0.841,4.646,1.987v-0.602
				c0-1.016-0.553-1.84-1.655-2.476c-1.178-0.68-1.837-0.553-1.973,0.381l-3.104-2.063c0.203-1.066,0.817-1.555,1.843-1.459
				c1.023,0.095,2.184,0.518,3.479,1.264c0.776,0.447,1.507,0.952,2.192,1.514s1.221,1.118,1.604,1.674
				c0.385,0.551,0.645,1.05,0.78,1.498c0.137,0.446,0.203,1.129,0.203,2.047v4.731C363.075,453.009,363.143,453.699,363.277,454.17z
				 M359.708,447.105c-2.351-1.143-3.525-1.171-3.525-0.081c0,0.364,0.123,0.751,0.371,1.159c0.248,0.409,0.604,0.748,1.059,1.01
				c0.594,0.344,1.092,0.403,1.493,0.187c0.401-0.22,0.603-0.661,0.603-1.322V447.105L359.708,447.105z"/>
		</g>
		<g>
			<path fill="#FFFFFF" d="M364.091,442.547v0.32l-0.4-0.233v1.299l-0.386-0.22v-1.3l-0.4-0.233v-0.321L364.091,442.547z"/>
			<path fill="#FFFFFF" d="M364.947,444.658l-0.399-1.552v1.32l-0.317-0.183v-1.618l0.592,0.341l0.284,1.132l0.297-0.798
				l0.594,0.343v1.619l-0.381-0.22v-1.323l-0.409,1.089L364.947,444.658z"/>
		</g>
	</g>
</g>
<g>
	<g>
		<polygon opacity="0.5" fill="#173D7A" enable-background="new    " points="90.601,325.243 14.349,279.988 27.329,270.641 
			103.579,314.188 		"/>
		<polygon fill="#173D7A" points="106.999,304.227 94.021,315.281 94.021,272.65 106.999,265.018 		"/>
		<polygon fill="#D4ECFF" points="94.021,272.65 17.771,227.396 32.459,221.47 106.999,265.018 		"/>
		<polygon fill="#5793CE" points="94.021,315.281 17.771,270.025 17.771,227.396 94.021,272.65 		"/>
	</g>
	<g>
		<g>
			<path fill="#FFFFFF" d="M34.731,250.523c3.598,2.078,6.827,5.552,9.01,9.346l0.544,0.07c-2.288-4.051-5.722-7.775-9.554-9.986
				c-3.838-2.214-7.275-2.454-9.564-1.042l0.544,0.56C27.896,248.19,31.127,248.444,34.731,250.523"/>
			<path fill="#FFFFFF" d="M34.731,253.725c-4.792-2.768-8.692-1.119-8.692,3.672s3.898,10.941,8.692,13.709
				c4.791,2.766,8.69,1.119,8.69-3.672C43.422,262.639,39.522,256.489,34.731,253.725 M27.646,261.118
				c0.171,0.353,0.341,0.705,0.513,1.056c0.133,0.274,0.269,0.547,0.396,0.822c0.036,0.076,0.05,0.15,0.075,0.229
				c0.07,0.205,0.14,0.408,0.208,0.611C28.341,262.945,27.938,262.027,27.646,261.118 M27.317,259.045
				c-0.013,0.018-0.026,0.014-0.051-0.007c-0.034-0.026-0.068-0.054-0.101-0.08c-0.036-0.321-0.056-0.635-0.056-0.942
				c0-0.025,0-0.052,0-0.076c0.054,0.029,0.107,0.061,0.161,0.091c0.038,0.022,0.063,0.022,0.072-0.007
				c0.011-0.041,0.022-0.084,0.026-0.131c0.023-0.326,0.042-0.658,0.069-0.984c0.012-0.15,0.036-0.294,0.056-0.441
				c0.003-0.031,0.003-0.063,0.003-0.1c-0.002-0.03-0.018-0.057-0.05-0.057c-0.036-0.008-0.073-0.008-0.111-0.013
				c0.079-0.27,0.178-0.513,0.292-0.743c0.126,0.26,0.206,0.514,0.281,0.771c0.044,0.15,0.082,0.301,0.122,0.454
				c0.006,0.03,0.003,0.06,0.001,0.09c-0.029,0.356-0.059,0.715-0.088,1.069c-0.001,0.022-0.006,0.043-0.013,0.06
				c-0.154,0.331-0.321,0.647-0.525,0.929C27.38,258.968,27.346,259.005,27.317,259.045 M33.24,268.66
				c-0.007-0.03-0.021-0.073-0.055-0.108c-0.052-0.051-0.108-0.099-0.172-0.147c-0.295-0.221-0.594-0.438-0.891-0.662
				c-0.189-0.145-0.376-0.301-0.563-0.447c-0.027-0.02-0.096-0.077-0.09-0.05c0.009,0.036,0.018,0.06,0.028,0.09
				c0.027,0.065,0.056,0.134,0.083,0.2c-0.654-0.678-1.262-1.416-1.802-2.189c-0.031-0.08-0.061-0.158-0.086-0.234
				c-0.002-0.006-0.003-0.014-0.007-0.029c0.129,0.123,0.248,0.24,0.369,0.357c0.05,0.045,0.101,0.097,0.151,0.144
				c0.013,0.011,0.037,0.022,0.044,0.021c0.007-0.004,0.005-0.03,0-0.045c-0.088-0.313-0.178-0.629-0.263-0.943
				c-0.044-0.154-0.074-0.309-0.11-0.463c-0.033-0.146-0.107-0.275-0.237-0.387c-0.326-0.276-0.649-0.563-0.966-0.867
				c-0.036-0.033-0.072-0.073-0.096-0.117c-0.398-0.651-0.715-1.315-0.955-1.982c-0.034-0.095-0.042-0.185-0.054-0.275
				c-0.042-0.282-0.08-0.563-0.119-0.844c-0.007-0.058-0.01-0.109-0.017-0.164c-0.01-0.098,0.024-0.156,0.048-0.226
				c0.159-0.271,0.569-0.729,0.569-0.733c0.052-0.049,0.118-0.024,0.219,0.035c0.293,0.176,0.584,0.334,0.876,0.501
				c0.158,0.093,0.23,0.063,0.233-0.099c0.006-0.209,0.01-0.418,0.022-0.621c0.024-0.384,0.056-0.759,0.081-1.139
				c0.001-0.034,0-0.072-0.009-0.11c-0.017-0.069-0.056-0.12-0.118-0.147c-0.186-0.08-0.373-0.158-0.559-0.232
				c-0.164-0.064-0.327-0.127-0.491-0.188c-0.027-0.011-0.043-0.026-0.062-0.058c-0.229-0.356-0.364-0.711-0.424-1.062
				c-0.011-0.063-0.021-0.127-0.021-0.184c0.427-0.689,1.037-1.17,1.786-1.424c0.201,0.023,0.402,0.057,0.607,0.098
				c0.1,0.021,0.178,0.002,0.225-0.074c0.048-0.076,0.102-0.146,0.158-0.217c0.323-0.025,0.668-0.014,1.024,0.029
				c-0.08,0.127-0.164,0.251-0.244,0.376c-0.018,0.031-0.048,0.035-0.077,0.04c-0.098,0.033-0.191,0.064-0.29,0.09
				c-0.37,0.1-0.741,0.184-1.104,0.287c-0.095,0.027-0.207-0.018-0.313-0.031c-0.229-0.035-0.46-0.072-0.688-0.101
				c-0.084-0.011-0.142,0.03-0.171,0.097c-0.1,0.229-0.195,0.456-0.287,0.688c-0.039,0.104-0.07,0.215-0.104,0.322
				c-0.005,0.015-0.008,0.028-0.013,0.043c-0.017,0.076,0.008,0.105,0.093,0.133c0.279,0.08,0.558,0.166,0.834,0.25
				c0.08,0.027,0.16,0.055,0.238,0.086c0.116,0.039,0.188,0.002,0.214-0.096c0.044-0.164,0.076-0.338,0.123-0.5
				c0.06-0.211,0.128-0.418,0.191-0.625c0.004-0.011,0.016-0.021,0.026-0.026c0.403-0.251,0.875-0.386,1.415-0.401
				c0.037,0.002,0.084,0.018,0.127,0.032c0.448,0.165,0.899,0.353,1.353,0.56c0.039,0.021,0.078,0.033,0.116,0.041
				c0.07,0.012,0.111-0.011,0.125-0.084c0.034-0.181,0.08-0.354,0.121-0.533c0.007-0.031,0.024-0.041,0.055-0.041
				c0.133-0.008,0.271,0.006,0.41,0.025c0.321,0.145,0.646,0.311,0.98,0.501c0.785,0.451,1.542,1.009,2.255,1.644
				c0.033,0.037,0.067,0.074,0.098,0.113c0.018,0.021,0.036,0.053,0.043,0.077c0.082,0.271,0.166,0.539,0.243,0.812
				c0.026,0.098,0.078,0.178,0.151,0.24c0.087,0.084,0.18,0.154,0.272,0.229c0.128,0.105,0.257,0.207,0.384,0.314
				c0.018,0.015,0.038,0.045,0.044,0.066c0.063,0.256,0.124,0.51,0.185,0.764c0.003,0.02,0.007,0.031,0.01,0.055
				c0.002,0.013-0.005,0.013-0.021,0c-0.072-0.055-0.125-0.098-0.189-0.147c-0.146-0.11-0.293-0.227-0.438-0.337
				c-0.015-0.011-0.028-0.018-0.041-0.027c-0.085-0.05-0.12-0.033-0.106,0.062c0.036,0.244,0.073,0.489,0.107,0.733
				c0.038,0.285,0.072,0.568,0.106,0.853c0.015,0.122,0.097,0.265,0.211,0.353c0.085,0.065,0.174,0.123,0.261,0.187
				c0.413,0.301,0.824,0.603,1.238,0.897c0.034,0.026,0.068,0.051,0.103,0.078c0.072,0.053,0.118,0.045,0.114-0.033
				c-0.001-0.055-0.016-0.117-0.027-0.179c-0.08-0.452-0.178-0.907-0.292-1.372c-0.044-0.184-0.147-0.33-0.303-0.455
				c-0.133-0.108-0.267-0.222-0.4-0.334c-0.017-0.015-0.036-0.043-0.041-0.063c-0.083-0.291-0.168-0.582-0.251-0.877
				c0-0.004-0.002-0.008,0.005-0.004c0.073,0.063,0.142,0.121,0.214,0.186c0.101,0.09,0.202,0.18,0.303,0.268
				c0.01,0.011,0.019,0.018,0.027,0.023c0.019,0.016,0.045,0.031,0.058,0.031c0.011-0.003-0.003-0.038-0.012-0.055
				c-0.068-0.182-0.142-0.364-0.221-0.541c0.773,0.938,1.453,1.959,2.003,3.009c-0.173-0.193-0.348-0.384-0.528-0.567
				c-0.021-0.023-0.046-0.037-0.07-0.057c0.002,0.025-0.003,0.05,0.005,0.076c0.137,0.465,0.25,0.919,0.344,1.369
				c0.005,0.024,0.002,0.047-0.003,0.063c-0.17,0.374-0.47,0.571-0.874,0.632c-0.014,0-0.036-0.009-0.054-0.021
				c-0.417-0.282-0.832-0.564-1.248-0.848c-0.021-0.015-0.046-0.037-0.064-0.062c-0.619-0.82-1.17-1.673-1.65-2.556
				c-0.067-0.123-0.094-0.224-0.104-0.33c-0.029-0.395-0.069-0.795-0.105-1.19c-0.007-0.087-0.079-0.198-0.178-0.276
				c-0.087-0.065-0.178-0.119-0.267-0.18c-0.51-0.326-1.021-0.635-1.532-0.929c-0.071-0.038-0.139-0.073-0.198-0.069
				c-0.041,0.008-0.064,0.029-0.066,0.08c-0.014,0.502-0.027,1.003-0.042,1.504c-0.001,0.104,0.074,0.229,0.182,0.301
				c0.086,0.058,0.171,0.105,0.257,0.155c0.501,0.302,1.002,0.603,1.503,0.896c0.085,0.05,0.155,0.129,0.221,0.211
				c0.643,0.796,1.18,1.634,1.608,2.521c0.015,0.028,0.021,0.057,0.023,0.082c0.018,0.592,0.034,1.178,0.052,1.77
				c0.002,0.052,0.01,0.109,0.029,0.168c0.038,0.109,0.108,0.197,0.209,0.252c0.532,0.313,1.063,0.617,1.596,0.929
				c0.134,0.077,0.205,0.051,0.205-0.087c0-0.133-0.001-0.268-0.009-0.407c-0.021-0.396-0.044-0.8-0.066-1.196
				c-0.002-0.025,0.001-0.047,0.012-0.063c0.161-0.272,0.359-0.504,0.626-0.658c0.064-0.038,0.142-0.06,0.212-0.092
				c0.027-0.013,0.055-0.003,0.089,0.035c0.229,0.218,0.461,0.44,0.689,0.661c0.014,0.012,0.027,0.024,0.052,0.051
				c-0.002-0.035,0.001-0.057-0.006-0.09c-0.036-0.149-0.072-0.301-0.111-0.453c0.505,1.308,0.79,2.617,0.79,3.828
				c0,0.15-0.005,0.3-0.015,0.447c-0.106-0.353-0.206-0.699-0.289-1.043c-0.007-0.026-0.011-0.052-0.012-0.076
				c-0.026-0.326-0.049-0.651-0.074-0.975c-0.011-0.124-0.027-0.249-0.041-0.371c-0.004-0.021-0.007-0.043-0.014-0.063
				c-0.022-0.095-0.068-0.173-0.157-0.245c-0.267-0.217-0.53-0.441-0.796-0.663c-0.057-0.049-0.088-0.049-0.097,0.007
				c-0.007,0.043-0.006,0.1,0,0.152c0.053,0.504,0.086,0.998,0.103,1.484c0,0.023-0.007,0.049-0.017,0.065
				c-0.225,0.401-0.557,0.67-0.968,0.827c-0.072,0.027-0.143,0.057-0.218,0.081c-0.016,0.007-0.039,0.004-0.062-0.009
				c-0.369-0.191-0.737-0.39-1.106-0.584c-0.042-0.024-0.078-0.055-0.112-0.103c-0.707-0.897-1.271-1.851-1.728-2.841
				c-0.011-0.021-0.014-0.045-0.016-0.063c-0.012-0.551-0.023-1.103-0.035-1.652c-0.004-0.172-0.108-0.338-0.277-0.44
				c-0.467-0.276-0.934-0.555-1.4-0.835c-0.095-0.056-0.19-0.107-0.286-0.167c-0.03-0.022-0.064-0.047-0.092-0.079
				c-0.61-0.738-1.147-1.513-1.59-2.339c-0.046-0.089-0.09-0.176-0.132-0.261c-0.01-0.018-0.013-0.037-0.012-0.049
				c0.031-0.354,0.063-0.706,0.098-1.055c0.002-0.025,0.018-0.047,0.036-0.057c0.413-0.217,0.903-0.284,1.467-0.2
				c0.017,0.003,0.035,0.013,0.052,0.019c0.457,0.263,0.911,0.539,1.366,0.837c0.086,0.054,0.172,0.11,0.257,0.166
				c0.014,0.01,0.03,0.021,0.045,0.028c0.085,0.035,0.105,0.022,0.085-0.074c-0.053-0.26-0.107-0.5-0.164-0.769
				c-0.004-0.021-0.022-0.063-0.068-0.106c-0.062-0.051-0.094-0.078-0.155-0.12c-0.469-0.315-0.938-0.609-1.411-0.875
				c-0.045-0.024-0.091-0.04-0.135-0.058c-0.036-0.017-0.054,0-0.057,0.037c-0.012,0.184-0.029,0.342-0.041,0.524
				c-0.002,0.03-0.009,0.043-0.039,0.04c-0.036-0.002-0.068,0.013-0.102,0.02c-0.401,0.084-0.829,0.117-1.273,0.114
				c-0.082,0-0.161,0.008-0.243,0.011c-0.016,0-0.033-0.003-0.053-0.015c-0.444-0.205-0.89-0.394-1.33-0.562
				c-0.068-0.029-0.136-0.041-0.182-0.017c-0.03,0.017-0.062,0.036-0.07,0.076c-0.06,0.221-0.116,0.444-0.167,0.675
				c-0.041,0.189-0.075,0.391-0.109,0.588c-0.021,0.11,0.041,0.204,0.165,0.264c0.182,0.084,0.361,0.172,0.541,0.252
				c0.023,0.01,0.051,0.025,0.06,0.027c0.022,0.012,0.018,0.035,0.016,0.041c-0.034,0.357-0.068,0.713-0.103,1.069
				c-0.002,0.022-0.015,0.022-0.039,0.01c-0.19-0.094-0.379-0.179-0.568-0.28c-0.142-0.08-0.244-0.017-0.251,0.106
				c-0.024,0.418-0.047,0.834-0.068,1.256c-0.011,0.185-0.013,0.374-0.018,0.558c0,0.037,0,0.074,0.007,0.112
				c0.021,0.12,0.099,0.232,0.212,0.296c0.46,0.264,0.92,0.53,1.38,0.795c0.148,0.086,0.298,0.174,0.446,0.26
				c0.173,0.098,0.273,0.057,0.277-0.112c0.007-0.463,0.012-0.922,0.021-1.376c0.003-0.2,0.012-0.4,0.02-0.604
				c0.003-0.151-0.085-0.293-0.24-0.379c-0.253-0.134-0.47-0.246-0.723-0.38c-0.017-0.008-0.034-0.018-0.056-0.03
				c0-0.018-0.001-0.03,0-0.045c0.017-0.375,0.039-0.646,0.079-0.994c0.018-0.101-0.009-0.121,0.14-0.047
				c0.156,0.076,0.313,0.156,0.469,0.234c0.025,0.014,0.057,0.035,0.077,0.063c0.482,0.559,0.896,1.16,1.257,1.793
				c0.109,0.19,0.209,0.387,0.313,0.58c0.025,0.045,0.036,0.09,0.036,0.131c-0.006,0.485-0.008,0.974-0.013,1.461
				c0,0.022-0.007,0.045-0.021,0.059c-0.451,0.441-1.013,0.727-1.694,0.816c-0.063,0.011-0.128,0.019-0.195,0.021
				c-0.021,0-0.048-0.009-0.071-0.021c-0.489-0.295-0.977-0.594-1.466-0.893c-0.149-0.092-0.234-0.057-0.225,0.098
				c0.022,0.371,0.047,0.738,0.074,1.106c0.019,0.257,0.05,0.517,0.069,0.772c0.012,0.131,0.104,0.313,0.257,0.414
				c0.385,0.258,0.767,0.522,1.151,0.779c0.198,0.133,0.395,0.258,0.593,0.387c0.156,0.101,0.234,0.063,0.229-0.098
				c-0.022-0.607-0.042-1.212-0.063-1.818c0-0.02,0.005-0.041,0.018-0.051c0.438-0.412,0.991-0.646,1.642-0.724
				c0.014-0.004,0.036,0.005,0.053,0.015c0.626,0.36,1.253,0.726,1.88,1.086c0.018,0.012,0.039,0.029,0.052,0.047
				c0.63,0.809,1.155,1.652,1.557,2.543c0.014,0.029,0.021,0.066,0.02,0.093c-0.034,0.548-0.07,1.099-0.106,1.646
				c-0.011,0.146,0.06,0.254,0.214,0.322c0.326,0.146,0.653,0.297,0.979,0.439c0.183,0.082,0.367,0.156,0.551,0.229
				c0.101,0.041,0.193,0.003,0.208-0.096c0.039-0.249,0.076-0.499,0.106-0.753c0.027-0.23,0.047-0.467,0.068-0.701
				c0.002-0.014,0.008-0.027,0.014-0.037c0.267-0.346,0.578-0.641,0.938-0.868c0.048-0.03,0.098-0.057,0.149-0.079
				c0.014-0.008,0.035-0.005,0.057,0.006c0.244,0.141,0.487,0.283,0.731,0.432c0.018,0.01,0.041,0.043,0.053,0.066
				c0.154,0.31,0.264,0.614,0.328,0.912c0.007,0.025,0.011,0.053,0.018,0.082c-0.068,0.639-0.225,1.199-0.458,1.678
				c-0.013-0.086-0.025-0.172-0.032-0.258c-0.005-0.072,0.012-0.137,0.023-0.199c0.034-0.219,0.071-0.432,0.104-0.648
				c0.02-0.127,0.033-0.257,0.047-0.389c0.002-0.01,0.002-0.018,0.004-0.027c0.003-0.111-0.016-0.143-0.129-0.191
				c-0.261-0.123-0.523-0.246-0.785-0.365c-0.051-0.026-0.086-0.026-0.114,0.002c-0.035,0.037-0.047,0.097-0.053,0.16
				c-0.022,0.221-0.041,0.443-0.068,0.66c-0.029,0.23-0.064,0.453-0.101,0.678c-0.002,0.015-0.007,0.031-0.016,0.039
				c-0.34,0.385-0.766,0.644-1.281,0.779c-0.075,0.02-0.162-0.01-0.255-0.045c-0.328-0.13-0.656-0.262-0.982-0.393
				c-0.059-0.021-0.106-0.055-0.158-0.111c-0.369-0.408-0.682-0.855-0.964-1.324c-0.152-0.256-0.292-0.515-0.418-0.774
				c-0.012-0.024-0.018-0.052-0.017-0.073c0.019-0.543,0.039-1.082,0.058-1.623c0.003-0.042,0-0.09-0.013-0.141
				c-0.031-0.108-0.099-0.207-0.195-0.266c-0.123-0.076-0.248-0.145-0.373-0.214l-1.713-0.979c-0.126-0.075-0.221-0.067-0.257,0.02
				c-0.01,0.028-0.014,0.061-0.014,0.096c0.006,0.582,0.012,1.164,0.019,1.746c0,0.02-0.005,0.039-0.015,0.047
				c-0.416,0.347-0.927,0.526-1.566,0.486c-0.036-0.002-0.072-0.017-0.115-0.045c-0.454-0.314-0.909-0.633-1.364-0.952
				c-0.022-0.015-0.043-0.043-0.063-0.065c-0.47-0.616-0.879-1.258-1.226-1.926c-0.08-0.158-0.158-0.313-0.234-0.472
				c-0.011-0.017-0.014-0.04-0.016-0.058c-0.036-0.34-0.073-0.68-0.107-1.019c-0.021-0.228-0.034-0.448-0.052-0.672
				c-0.004-0.065-0.027-0.144-0.077-0.214c-0.027-0.04-0.066-0.083-0.101-0.107c-0.385-0.256-0.768-0.509-1.152-0.761
				c-0.053-0.034-0.077-0.034-0.091,0.015c-0.009,0.029-0.012,0.063-0.009,0.104c0.039,0.364,0.077,0.729,0.122,1.096
				c0.023,0.193,0.06,0.391,0.092,0.59c0.007,0.035,0.022,0.082,0.037,0.121c0.031,0.086,0.081,0.153,0.155,0.215
				c0.292,0.244,0.584,0.49,0.878,0.738c0.026,0.022,0.054,0.053,0.073,0.082c0.454,0.661,0.874,1.331,1.271,2.018
				c0.087,0.146,0.174,0.298,0.253,0.447c0.027,0.055,0.032,0.11,0.044,0.168c0.079,0.348,0.158,0.69,0.236,1.039
				c0.032,0.144,0.125,0.258,0.243,0.356c0.472,0.374,0.948,0.728,1.428,1.062c0.041,0.03,0.082,0.062,0.122,0.088
				c0.033,0.019,0.067,0.035,0.099,0.047c0.047,0.014,0.062-0.008,0.057-0.058c-0.036-0.348-0.075-0.694-0.113-1.038
				c-0.004-0.029-0.002-0.061-0.009-0.094c-0.009-0.059,0-0.091,0.041-0.109c0.123-0.058,0.232-0.135,0.355-0.188
				c0.368-0.16,0.78-0.237,1.229-0.243c0.015-0.004,0.035,0.006,0.054,0.018c0.516,0.287,1.029,0.57,1.545,0.86
				c0.019,0.007,0.039,0.025,0.055,0.044c0.494,0.575,0.938,1.182,1.3,1.84c0.024,0.047,0.051,0.096,0.075,0.142
				c0.082,0.159,0.082,0.159,0.054,0.282c-0.047,0.222-0.095,0.444-0.145,0.666c-0.016,0.069-0.036,0.135-0.055,0.203
				c-0.013,0.047,0.005,0.086,0.062,0.121c0.05,0.028,0.101,0.049,0.15,0.065c0.405,0.151,0.805,0.284,1.2,0.394
				c0.082,0.023,0.168,0.055,0.229,0.023c0.036-0.014,0.071-0.034,0.09-0.069c0.054-0.101,0.086-0.186,0.134-0.291
				c0.007-0.01,0.022-0.022,0.038-0.019c0.254,0.056,0.52,0.089,0.776,0.146c0.003,0.004,0.023,0.006,0.019,0.016
				c-0.071,0.135-0.139,0.255-0.208,0.387l0.01,0.014c0.014,0.004,0.03,0.012,0.042,0.012c0.02,0.004,0.036,0.004,0.054,0.004
				c-0.383,0.156-0.808,0.248-1.264,0.274c-0.012-0.006-0.026-0.012-0.038-0.013c-0.185-0.049-0.367-0.092-0.554-0.146
				c-0.255-0.078-0.515-0.168-0.771-0.25c-0.051-0.018-0.103-0.021-0.148-0.021c-0.025,0-0.048,0.017-0.06,0.035
				c-0.04,0.079-0.082,0.153-0.128,0.223c-0.326-0.079-0.661-0.188-1.001-0.321c0.012-0.035,0.025-0.067,0.037-0.099
				c0.027-0.083,0.054-0.163,0.083-0.243c0.008-0.027-0.004-0.054-0.031-0.074c-0.036-0.027-0.071-0.057-0.105-0.072
				c-0.193-0.101-0.386-0.193-0.576-0.295c-0.015-0.004-0.036-0.021-0.036-0.043c0.007-0.049,0.01-0.069,0.017-0.119
				c0.016-0.12,0.029-0.247,0.043-0.375c0.007-0.053,0.007-0.053,0.066-0.022c0.188,0.097,0.377,0.19,0.564,0.287
				c0.037,0.017,0.075,0.028,0.111,0.033c0.062,0.009,0.099-0.017,0.107-0.08c0.048-0.397,0.1-0.792,0.146-1.188
				c0.012-0.084-0.058-0.188-0.16-0.25c-0.073-0.043-0.148-0.08-0.222-0.119c-0.569-0.295-1.139-0.617-1.71-0.946
				c-0.045-0.026-0.095-0.042-0.136-0.048c-0.07-0.008-0.103,0.027-0.101,0.107c0.016,0.438,0.032,0.875,0.046,1.311
				c0.002,0.046,0.021,0.088,0.055,0.125c0.051,0.063,0.109,0.109,0.17,0.145c0.212,0.119,0.42,0.24,0.632,0.357
				c0.036,0.021,0.05,0.037,0.049,0.072c-0.004,0.179-0.005,0.352-0.007,0.531c0,0.033-0.016,0.026-0.042,0.012
				c-0.206-0.114-0.411-0.236-0.619-0.349c-0.046-0.028-0.092-0.047-0.138-0.063c-0.038-0.014-0.053,0.004-0.05,0.049
				c0.012,0.152,0.021,0.306,0.034,0.453c-0.337-0.211-0.669-0.444-0.995-0.69C33.311,268.957,33.276,268.811,33.24,268.66
				 M41.403,269.945c-0.256-0.014-0.526-0.051-0.796-0.104c-0.103-0.019-0.158,0.031-0.19,0.111
				c-0.057,0.134-0.092,0.228-0.148,0.36c-0.006,0.014-0.026,0.023-0.041,0.021c-0.247-0.04-0.521-0.075-0.78-0.16
				c-0.008-0.003-0.014-0.021-0.005-0.043c0.019-0.054,0.027-0.071,0.044-0.124c0.013-0.04,0.029-0.076,0.039-0.117
				c0.013-0.045,0.038-0.076,0.072-0.1c0.351-0.262,0.724-0.484,1.114-0.688c0.051-0.023,0.102-0.049,0.155-0.07
				c0.012-0.006,0.029-0.006,0.044-0.004c0.227,0.048,0.453,0.102,0.679,0.147c0.026,0.003,0.039,0.019,0.059,0.05
				c0.039,0.073,0.071,0.146,0.098,0.217C41.644,269.622,41.528,269.789,41.403,269.945"/>
			<path fill="#FFFFFF" d="M68.352,287.15l1.572,0.906v-9.484l-1.572-0.908V287.15z M79.512,293.596l1.571,0.906v-8.023l2.978,1.721
				v-1.461l-7.53-4.35v1.465l2.979,1.721v8.021H79.512z M74.586,283.43c-2.064-1.193-3.735-0.484-3.735,1.579
				s1.674,4.702,3.735,5.896c2.063,1.188,3.736,0.484,3.736-1.58S76.649,284.621,74.586,283.43 M74.586,289.389
				c-1.226-0.705-2.223-2.279-2.223-3.505c0-1.228,0.997-1.647,2.223-0.942c1.227,0.709,2.224,2.281,2.224,3.51
				C76.811,289.674,75.814,290.1,74.586,289.389 M67.037,282.424l-3.763-2.171v-1.526l3.763,2.174V282.424z"/>
			<path fill="#FFFFFF" d="M47.179,265.439l1.137,0.658l3.381,6.709v-4.757l2.393,1.38v9.465l-2.149-1.244l-3.283-6.627v4.731
				l-1.348-0.776c-0.576-0.334-1.047-1.071-1.047-1.649v-7.501C46.262,265.323,46.674,265.148,47.179,265.439"/>
			<path fill="#FFFFFF" d="M54.971,269.939l3.92,2.263c1.148,0.666,2.014,1.435,2.58,2.315c0.38,0.609,0.608,1.254,0.608,1.935
				v0.053c0,0.792-0.333,1.149-0.813,1.255c-0.216,0.045-0.197,0.389,0.041,0.662c0.67,0.778,1.096,1.624,1.096,2.596v0.055
				c0,1.607-1.271,1.889-3.5,0.601l-3.933-2.271L54.971,269.939L54.971,269.939z M59.688,275.57c0-0.581-0.419-1.122-1.136-1.531
				l-1.217-0.705v1.771l1.163,0.67c0.743,0.431,1.189,0.394,1.189-0.188L59.688,275.57L59.688,275.57z M58.755,277.708l-1.421-0.817
				v1.85l1.433,0.824c0.77,0.447,1.217,0.367,1.217-0.213v-0.016C59.986,278.783,59.567,278.175,58.755,277.708"/>
			<path fill="#FFFFFF" d="M34.731,252.568c2.76,1.595,5.258,4.179,7.046,7.051l0.829,0.105c-1.958-3.261-4.765-6.215-7.875-8.012
				c-3.118-1.804-5.928-2.084-7.886-1.079l0.829,0.849C29.465,250.673,31.966,250.973,34.731,252.568"/>
			<path fill="#FFFFFF" d="M84.761,287.221l-0.226-0.133v-0.074l0.53,0.307v0.076l-0.227-0.133v0.614l-0.078-0.047v-0.61H84.761z
				 M85.223,287.41l0.082,0.047l0.269,0.564l0.268-0.254l0.081,0.047v0.688l-0.079-0.047v-0.548l-0.267,0.243l-0.01-0.004
				l-0.268-0.552v0.548l-0.076-0.043V287.41z"/>
		</g>
	</g>
</g>
<g>
	<g>
		<polygon opacity="0.5" fill="#173D7A" enable-background="new    " points="461.87,377.131 385.62,331.873 398.601,322.527 
			474.851,366.074 		"/>
		<polygon fill="#173D7A" points="478.271,356.111 465.29,367.168 465.29,324.537 478.271,316.902 		"/>
		<polygon fill="#D4ECFF" points="465.29,324.537 389.043,279.283 403.73,273.355 478.271,316.902 		"/>
		<polygon fill="#5793CE" points="465.29,367.168 389.043,321.91 389.043,279.283 465.29,324.537 		"/>
	</g>
	<g>
		<path fill="#FFFFFF" d="M419.736,325.433l6.067,3.091l-0.006,2.242l-7.37-3.755c-0.277-0.144-0.533-0.364-0.745-0.638
			c-0.21-0.283-0.347-0.596-0.392-0.922l-2.082-15.613l-4.42,12.396c-0.147,0.518-0.518,0.619-1.092,0.328
			c-0.245-0.127-0.484-0.334-0.699-0.597c-0.216-0.276-0.364-0.567-0.439-0.866l-4.371-16.879l-2.135,13.479
			c-0.016,0.129-0.148,0.443-0.374,0.517c-0.233,0.081-0.563-0.03-0.872-0.189l-3.799-1.935l0.007-2.248
			c0.818,0.416,1.604,0.816,2.416,1.232c0.277,0.14,0.546,0.084,0.591-0.172l2.445-12.797c0,0,0.262-0.764,0.582-0.875
			c0.317-0.112,0.682-0.068,1.09,0.143c0.395,0.198,0.752,0.489,1.047,0.851c0.303,0.362,0.508,0.774,0.598,1.213l3.868,15.121
			l0.045,0.024l3.862-11.275c0.095-0.309,0.288-0.488,0.59-0.526c0.295-0.048,0.639,0.017,1.008,0.204
			c0.438,0.223,0.825,0.553,1.137,0.973c0.324,0.422,0.513,0.893,0.586,1.391l2.371,15.354
			C419.295,324.994,419.469,325.295,419.736,325.433L419.736,325.433z"/>
		<polygon fill="#FFFFFF" points="418.394,326.984 453.552,344.898 453.552,342.656 418.394,324.742 		"/>
		<path fill="#FFFFFF" d="M453.536,343.77v-1.125c0.619,0.316,1.125,1.078,1.125,1.698c0,0.618-0.506,0.868-1.125,0.55V343.77
			L453.536,343.77z"/>
		<path fill="#FFFFFF" d="M397.039,314.979v1.124c-0.619-0.316-1.124-1.078-1.124-1.697s0.505-0.865,1.124-0.55V314.979
			L397.039,314.979z"/>
		<path fill="#FFFFFF" d="M429.388,328.523l-3.468-1.766c-0.498-0.255-0.855-0.547-1.07-0.881c-0.213-0.336-0.32-0.746-0.32-1.237
			v-8.528c0-0.5,0.107-0.805,0.326-0.912c0.219-0.106,0.578-0.033,1.065,0.215l3.678,1.871c0.542,0.276,1.01,0.549,1.407,0.818
			c0.398,0.27,0.752,0.58,1.069,0.931c0.269,0.298,0.504,0.622,0.71,0.972c0.208,0.35,0.362,0.7,0.472,1.053
			c0.107,0.352,0.164,0.693,0.164,1.021c0,1.136-0.569,1.681-1.704,1.625c1.491,1.232,2.235,2.537,2.235,3.912
			c0,0.633-0.162,1.121-0.488,1.461c-0.326,0.343-0.764,0.496-1.314,0.457c-0.346-0.031-0.742-0.133-1.193-0.302
			C430.509,329.065,429.985,328.828,429.388,328.523L429.388,328.523z M429.216,323.398l-2.39-1.219v3.314l2.468,1.258
			c1.551,0.79,2.328,0.624,2.328-0.496c0-0.573-0.201-1.09-0.602-1.553C430.616,324.242,430.017,323.809,429.216,323.398
			L429.216,323.398z M426.826,317.598v2.935l2.104,1.071c0.57,0.292,1.014,0.462,1.326,0.514s0.549-0.034,0.717-0.254
			c0.128-0.15,0.192-0.359,0.192-0.63c0-0.573-0.205-1.058-0.61-1.452c-0.406-0.395-1.03-0.809-1.865-1.232L426.826,317.598
			L426.826,317.598z M441.278,333.584v-0.273c-0.254,0.191-0.518,0.326-0.797,0.4c-0.276,0.074-0.58,0.082-0.911,0.019
			s-0.706-0.202-1.13-0.417c-0.512-0.26-0.968-0.599-1.377-1.018c-0.402-0.415-0.717-0.866-0.939-1.354
			c-0.262-0.58-0.396-1.293-0.396-2.132v-4.188c0-0.426,0.096-0.69,0.285-0.804c0.193-0.11,0.444-0.088,0.761,0.074
			c0.32,0.162,0.578,0.398,0.773,0.711c0.197,0.311,0.294,0.675,0.294,1.095v3.38c0,0.49,0.042,0.922,0.124,1.299
			c0.082,0.372,0.23,0.71,0.443,1.006c0.215,0.298,0.505,0.541,0.873,0.729c0.354,0.18,0.69,0.246,1.005,0.195
			c0.313-0.052,0.544-0.214,0.688-0.479c0.119-0.238,0.178-0.863,0.178-1.875v-2.567c0-0.418,0.098-0.685,0.293-0.796
			c0.197-0.11,0.451-0.087,0.765,0.074c0.317,0.16,0.569,0.395,0.763,0.703c0.189,0.304,0.285,0.668,0.285,1.094v6.119
			c0,0.4-0.094,0.653-0.277,0.766c-0.182,0.107-0.42,0.086-0.707-0.061c-0.29-0.148-0.527-0.375-0.716-0.68
			C441.371,334.303,441.278,333.96,441.278,333.584L441.278,333.584z M452.165,337.559c0,0.584-0.143,1.01-0.426,1.281
			c-0.283,0.27-0.701,0.371-1.254,0.304c-0.555-0.068-1.231-0.307-2.023-0.709c-0.76-0.386-1.41-0.834-1.952-1.343
			c-0.542-0.508-0.943-1.003-1.199-1.482c-0.257-0.478-0.386-0.893-0.386-1.246c0-0.229,0.082-0.391,0.248-0.466
			c0.164-0.086,0.373-0.062,0.626,0.068c0.223,0.114,0.392,0.257,0.511,0.424c0.118,0.169,0.231,0.379,0.34,0.628
			c0.217,0.49,0.475,0.9,0.775,1.242c0.305,0.339,0.715,0.643,1.237,0.908c0.423,0.214,0.769,0.297,1.04,0.246
			c0.272-0.049,0.407-0.197,0.407-0.437c0-0.372-0.142-0.716-0.423-1.029c-0.279-0.312-0.746-0.712-1.389-1.195
			c-0.727-0.55-1.318-1.041-1.775-1.474c-0.458-0.431-0.822-0.877-1.096-1.341c-0.274-0.464-0.41-0.937-0.41-1.409
			c0-0.422,0.127-0.758,0.383-1.006c0.25-0.25,0.623-0.359,1.116-0.335c0.491,0.026,1.089,0.22,1.784,0.575
			c0.545,0.277,1.037,0.582,1.473,0.918s0.801,0.676,1.09,1.013c0.294,0.343,0.517,0.666,0.667,0.976
			c0.151,0.311,0.229,0.576,0.229,0.801c0,0.238-0.084,0.396-0.242,0.469c-0.165,0.071-0.396,0.031-0.697-0.122
			c-0.214-0.11-0.398-0.267-0.551-0.465c-0.152-0.204-0.328-0.476-0.521-0.825c-0.16-0.287-0.35-0.551-0.567-0.785
			c-0.217-0.232-0.511-0.443-0.882-0.634c-0.381-0.193-0.7-0.276-0.951-0.241c-0.254,0.033-0.38,0.172-0.38,0.413
			c0,0.222,0.093,0.452,0.279,0.69c0.185,0.232,0.436,0.479,0.749,0.733c0.316,0.252,0.749,0.587,1.3,1.003
			c0.655,0.492,1.192,0.957,1.608,1.391c0.412,0.43,0.729,0.855,0.942,1.266C452.057,336.774,452.165,337.172,452.165,337.559
			L452.165,337.559z"/>
		<path fill="#FFFFFF" d="M422.049,319.92l-2.173-1.107c-0.331-0.168-0.58-0.372-0.753-0.613c-0.171-0.242-0.26-0.484-0.26-0.728
			c0-0.247,0.086-0.402,0.252-0.472c0.166-0.068,0.419-0.018,0.761,0.156l2.173,1.106c0.338,0.172,0.592,0.381,0.76,0.618
			c0.168,0.238,0.252,0.482,0.252,0.729c0,0.244-0.084,0.398-0.246,0.47C422.646,320.15,422.393,320.096,422.049,319.92
			L422.049,319.92z"/>
	</g>
</g>
</svg>
